<svg width="366" height="366" viewBox="0 0 366 366" fill="none" xmlns="http://www.w3.org/2000/svg">
<g filter="url(#filter0_b_447_23)">
<circle cx="183" cy="183" r="183" fill="#176782"/>
</g>
<path d="M84.6661 156L78.0861 138.472H77.9741C78.0114 138.845 78.0394 139.321 78.0581 139.9C78.0954 140.479 78.1234 141.113 78.1421 141.804C78.1607 142.476 78.1701 143.167 78.1701 143.876V156H75.8461V136.008H79.5701L85.7301 152.388H85.8421L92.1141 136.008H95.8101V156H93.3181V143.708C93.3181 143.055 93.3274 142.411 93.3461 141.776C93.3647 141.123 93.3927 140.516 93.4301 139.956C93.4674 139.377 93.4954 138.892 93.5141 138.5H93.4021L86.7381 156H84.6661ZM109.396 140.74C111.226 140.74 112.579 141.141 113.456 141.944C114.334 142.747 114.772 144.025 114.772 145.78V156H112.98L112.504 153.872H112.392C111.963 154.413 111.515 154.871 111.048 155.244C110.6 155.599 110.078 155.86 109.48 156.028C108.902 156.196 108.192 156.28 107.352 156.28C106.456 156.28 105.644 156.121 104.916 155.804C104.207 155.487 103.647 155.001 103.236 154.348C102.826 153.676 102.62 152.836 102.62 151.828C102.62 150.335 103.208 149.187 104.384 148.384C105.56 147.563 107.371 147.115 109.816 147.04L112.364 146.956V146.06C112.364 144.809 112.094 143.941 111.552 143.456C111.011 142.971 110.246 142.728 109.256 142.728C108.472 142.728 107.726 142.849 107.016 143.092C106.307 143.316 105.644 143.577 105.028 143.876L104.272 142.028C104.926 141.673 105.7 141.375 106.596 141.132C107.492 140.871 108.426 140.74 109.396 140.74ZM110.124 148.748C108.258 148.823 106.96 149.121 106.232 149.644C105.523 150.167 105.168 150.904 105.168 151.856C105.168 152.696 105.42 153.312 105.924 153.704C106.447 154.096 107.11 154.292 107.912 154.292C109.182 154.292 110.236 153.947 111.076 153.256C111.916 152.547 112.336 151.464 112.336 150.008V148.664L110.124 148.748ZM124.672 140.992V156H122.208V140.992H124.672ZM123.468 135.364C123.841 135.364 124.168 135.495 124.448 135.756C124.746 135.999 124.896 136.391 124.896 136.932C124.896 137.455 124.746 137.847 124.448 138.108C124.168 138.369 123.841 138.5 123.468 138.5C123.057 138.5 122.712 138.369 122.432 138.108C122.152 137.847 122.012 137.455 122.012 136.932C122.012 136.391 122.152 135.999 122.432 135.756C122.712 135.495 123.057 135.364 123.468 135.364ZM139.45 140.712C141.242 140.712 142.596 141.151 143.51 142.028C144.425 142.887 144.882 144.287 144.882 146.228V156H142.446V146.396C142.446 145.183 142.176 144.277 141.634 143.68C141.093 143.083 140.244 142.784 139.086 142.784C137.425 142.784 136.277 143.251 135.642 144.184C135.008 145.117 134.69 146.461 134.69 148.216V156H132.226V140.992H134.214L134.578 143.036H134.718C135.054 142.513 135.465 142.084 135.95 141.748C136.454 141.393 137.005 141.132 137.602 140.964C138.2 140.796 138.816 140.712 139.45 140.712ZM157.347 154.264C157.72 154.264 158.103 154.236 158.495 154.18C158.887 154.105 159.204 154.031 159.447 153.956V155.832C159.186 155.963 158.812 156.065 158.327 156.14C157.842 156.233 157.375 156.28 156.927 156.28C156.143 156.28 155.415 156.149 154.743 155.888C154.09 155.608 153.558 155.132 153.147 154.46C152.736 153.788 152.531 152.845 152.531 151.632V142.896H150.403V141.72L152.559 140.74L153.539 137.548H154.995V140.992H159.335V142.896H154.995V151.576C154.995 152.491 155.21 153.172 155.639 153.62C156.087 154.049 156.656 154.264 157.347 154.264ZM170.936 140.74C172.766 140.74 174.119 141.141 174.996 141.944C175.874 142.747 176.312 144.025 176.312 145.78V156H174.52L174.044 153.872H173.932C173.503 154.413 173.055 154.871 172.588 155.244C172.14 155.599 171.618 155.86 171.02 156.028C170.442 156.196 169.732 156.28 168.892 156.28C167.996 156.28 167.184 156.121 166.456 155.804C165.747 155.487 165.187 155.001 164.776 154.348C164.366 153.676 164.16 152.836 164.16 151.828C164.16 150.335 164.748 149.187 165.924 148.384C167.1 147.563 168.911 147.115 171.356 147.04L173.904 146.956V146.06C173.904 144.809 173.634 143.941 173.092 143.456C172.551 142.971 171.786 142.728 170.796 142.728C170.012 142.728 169.266 142.849 168.556 143.092C167.847 143.316 167.184 143.577 166.568 143.876L165.812 142.028C166.466 141.673 167.24 141.375 168.136 141.132C169.032 140.871 169.966 140.74 170.936 140.74ZM171.664 148.748C169.798 148.823 168.5 149.121 167.772 149.644C167.063 150.167 166.708 150.904 166.708 151.856C166.708 152.696 166.96 153.312 167.464 153.704C167.987 154.096 168.65 154.292 169.452 154.292C170.722 154.292 171.776 153.947 172.616 153.256C173.456 152.547 173.876 151.464 173.876 150.008V148.664L171.664 148.748ZM186.212 140.992V156H183.748V140.992H186.212ZM185.008 135.364C185.381 135.364 185.708 135.495 185.988 135.756C186.286 135.999 186.436 136.391 186.436 136.932C186.436 137.455 186.286 137.847 185.988 138.108C185.708 138.369 185.381 138.5 185.008 138.5C184.597 138.5 184.252 138.369 183.972 138.108C183.692 137.847 183.552 137.455 183.552 136.932C183.552 136.391 183.692 135.999 183.972 135.756C184.252 135.495 184.597 135.364 185.008 135.364ZM200.99 140.712C202.782 140.712 204.136 141.151 205.05 142.028C205.965 142.887 206.422 144.287 206.422 146.228V156H203.986V146.396C203.986 145.183 203.716 144.277 203.174 143.68C202.633 143.083 201.784 142.784 200.626 142.784C198.965 142.784 197.817 143.251 197.182 144.184C196.548 145.117 196.23 146.461 196.23 148.216V156H193.766V140.992H195.754L196.118 143.036H196.258C196.594 142.513 197.005 142.084 197.49 141.748C197.994 141.393 198.545 141.132 199.142 140.964C199.74 140.796 200.356 140.712 200.99 140.712ZM221.596 140.992H224.228L227.476 149.532C227.663 150.036 227.831 150.521 227.98 150.988C228.148 151.455 228.298 151.912 228.428 152.36C228.559 152.789 228.662 153.209 228.736 153.62H228.848C228.96 153.153 229.138 152.547 229.38 151.8C229.623 151.035 229.875 150.269 230.136 149.504L233.188 140.992H235.848L229.38 158.072C229.026 159.005 228.606 159.817 228.12 160.508C227.654 161.217 227.075 161.759 226.384 162.132C225.712 162.524 224.891 162.72 223.92 162.72C223.472 162.72 223.08 162.692 222.744 162.636C222.408 162.599 222.119 162.552 221.876 162.496V160.536C222.082 160.573 222.324 160.611 222.604 160.648C222.903 160.685 223.211 160.704 223.528 160.704C224.107 160.704 224.602 160.592 225.012 160.368C225.442 160.163 225.806 159.855 226.104 159.444C226.403 159.052 226.655 158.585 226.86 158.044L227.644 156.056L221.596 140.992ZM254.07 148.468C254.07 149.719 253.902 150.829 253.566 151.8C253.248 152.752 252.782 153.564 252.166 154.236C251.568 154.908 250.831 155.421 249.954 155.776C249.095 156.112 248.134 156.28 247.07 156.28C246.08 156.28 245.166 156.112 244.326 155.776C243.486 155.421 242.758 154.908 242.142 154.236C241.526 153.564 241.04 152.752 240.686 151.8C240.35 150.829 240.182 149.719 240.182 148.468C240.182 146.807 240.462 145.407 241.022 144.268C241.582 143.111 242.384 142.233 243.43 141.636C244.475 141.02 245.716 140.712 247.154 140.712C248.516 140.712 249.711 141.02 250.738 141.636C251.783 142.233 252.595 143.111 253.174 144.268C253.771 145.407 254.07 146.807 254.07 148.468ZM242.73 148.468C242.73 149.644 242.879 150.671 243.178 151.548C243.495 152.407 243.98 153.069 244.634 153.536C245.287 154.003 246.118 154.236 247.126 154.236C248.134 154.236 248.964 154.003 249.618 153.536C250.271 153.069 250.747 152.407 251.046 151.548C251.363 150.671 251.522 149.644 251.522 148.468C251.522 147.273 251.363 146.256 251.046 145.416C250.728 144.576 250.243 143.932 249.59 143.484C248.955 143.017 248.124 142.784 247.098 142.784C245.567 142.784 244.456 143.288 243.766 144.296C243.075 145.304 242.73 146.695 242.73 148.468ZM273.319 140.992V156H271.303L270.939 154.012H270.827C270.51 154.535 270.099 154.964 269.595 155.3C269.091 155.636 268.54 155.879 267.943 156.028C267.346 156.196 266.72 156.28 266.067 156.28C264.872 156.28 263.864 156.093 263.043 155.72C262.24 155.328 261.634 154.731 261.223 153.928C260.812 153.125 260.607 152.089 260.607 150.82V140.992H263.099V150.652C263.099 151.847 263.37 152.743 263.911 153.34C264.452 153.937 265.292 154.236 266.431 154.236C267.551 154.236 268.428 154.031 269.063 153.62C269.716 153.191 270.174 152.575 270.435 151.772C270.715 150.951 270.855 149.961 270.855 148.804V140.992H273.319ZM287.884 140.712C288.164 140.712 288.462 140.731 288.78 140.768C289.116 140.787 289.405 140.824 289.648 140.88L289.34 143.148C289.097 143.092 288.826 143.045 288.528 143.008C288.248 142.971 287.977 142.952 287.716 142.952C287.137 142.952 286.586 143.073 286.064 143.316C285.541 143.559 285.074 143.904 284.664 144.352C284.253 144.781 283.926 145.304 283.684 145.92C283.46 146.536 283.348 147.227 283.348 147.992V156H280.884V140.992H282.9L283.18 143.736H283.292C283.609 143.176 283.992 142.672 284.44 142.224C284.888 141.757 285.401 141.393 285.98 141.132C286.558 140.852 287.193 140.712 287.884 140.712ZM64.51 177.9C64.51 178.535 64.4913 179.132 64.454 179.692C64.4353 180.233 64.4073 180.663 64.37 180.98H64.51C64.9393 180.345 65.5273 179.813 66.274 179.384C67.0207 178.955 67.982 178.74 69.158 178.74C71.0247 178.74 72.518 179.393 73.638 180.7C74.7767 181.988 75.346 183.92 75.346 186.496C75.346 188.213 75.0847 189.651 74.562 190.808C74.058 191.965 73.3393 192.833 72.406 193.412C71.4727 193.991 70.39 194.28 69.158 194.28C67.982 194.28 67.0207 194.065 66.274 193.636C65.5273 193.207 64.9393 192.693 64.51 192.096H64.314L63.81 194H62.046V172.72H64.51V177.9ZM68.738 180.784C67.674 180.784 66.834 180.989 66.218 181.4C65.602 181.792 65.1633 182.408 64.902 183.248C64.6407 184.069 64.51 185.124 64.51 186.412V186.524C64.51 188.372 64.8087 189.791 65.406 190.78C66.022 191.751 67.1513 192.236 68.794 192.236C70.138 192.236 71.1367 191.741 71.79 190.752C72.462 189.763 72.798 188.335 72.798 186.468C72.798 184.583 72.462 183.164 71.79 182.212C71.1367 181.26 70.1193 180.784 68.738 180.784ZM95.1206 186.468C95.1206 187.719 94.9526 188.829 94.6166 189.8C94.2992 190.752 93.8326 191.564 93.2166 192.236C92.6192 192.908 91.8819 193.421 91.0046 193.776C90.1459 194.112 89.1846 194.28 88.1206 194.28C87.1312 194.28 86.2166 194.112 85.3766 193.776C84.5366 193.421 83.8086 192.908 83.1926 192.236C82.5766 191.564 82.0912 190.752 81.7366 189.8C81.4006 188.829 81.2326 187.719 81.2326 186.468C81.2326 184.807 81.5126 183.407 82.0726 182.268C82.6326 181.111 83.4352 180.233 84.4806 179.636C85.5259 179.02 86.7672 178.712 88.2046 178.712C89.5672 178.712 90.7619 179.02 91.7886 179.636C92.8339 180.233 93.6459 181.111 94.2246 182.268C94.8219 183.407 95.1206 184.807 95.1206 186.468ZM83.7806 186.468C83.7806 187.644 83.9299 188.671 84.2286 189.548C84.5459 190.407 85.0312 191.069 85.6846 191.536C86.3379 192.003 87.1686 192.236 88.1766 192.236C89.1846 192.236 90.0152 192.003 90.6686 191.536C91.3219 191.069 91.7979 190.407 92.0966 189.548C92.4139 188.671 92.5726 187.644 92.5726 186.468C92.5726 185.273 92.4139 184.256 92.0966 183.416C91.7792 182.576 91.2939 181.932 90.6406 181.484C90.0059 181.017 89.1752 180.784 88.1486 180.784C86.6179 180.784 85.5072 181.288 84.8166 182.296C84.1259 183.304 83.7806 184.695 83.7806 186.468ZM107.51 178.74C109.339 178.74 110.692 179.141 111.57 179.944C112.447 180.747 112.886 182.025 112.886 183.78V194H111.094L110.618 191.872H110.506C110.076 192.413 109.628 192.871 109.162 193.244C108.714 193.599 108.191 193.86 107.594 194.028C107.015 194.196 106.306 194.28 105.466 194.28C104.57 194.28 103.758 194.121 103.03 193.804C102.32 193.487 101.76 193.001 101.35 192.348C100.939 191.676 100.734 190.836 100.734 189.828C100.734 188.335 101.322 187.187 102.498 186.384C103.674 185.563 105.484 185.115 107.93 185.04L110.478 184.956V184.06C110.478 182.809 110.207 181.941 109.666 181.456C109.124 180.971 108.359 180.728 107.37 180.728C106.586 180.728 105.839 180.849 105.13 181.092C104.42 181.316 103.758 181.577 103.142 181.876L102.386 180.028C103.039 179.673 103.814 179.375 104.71 179.132C105.606 178.871 106.539 178.74 107.51 178.74ZM108.238 186.748C106.371 186.823 105.074 187.121 104.346 187.644C103.636 188.167 103.282 188.904 103.282 189.856C103.282 190.696 103.534 191.312 104.038 191.704C104.56 192.096 105.223 192.292 106.026 192.292C107.295 192.292 108.35 191.947 109.19 191.256C110.03 190.547 110.45 189.464 110.45 188.008V186.664L108.238 186.748ZM125.333 192.264C125.706 192.264 126.089 192.236 126.481 192.18C126.873 192.105 127.19 192.031 127.433 191.956V193.832C127.172 193.963 126.798 194.065 126.313 194.14C125.828 194.233 125.361 194.28 124.913 194.28C124.129 194.28 123.401 194.149 122.729 193.888C122.076 193.608 121.544 193.132 121.133 192.46C120.722 191.788 120.517 190.845 120.517 189.632V180.896H118.389V179.72L120.545 178.74L121.525 175.548H122.981V178.992H127.321V180.896H122.981V189.576C122.981 190.491 123.196 191.172 123.625 191.62C124.073 192.049 124.642 192.264 125.333 192.264ZM149.444 173.7C150.452 173.7 151.31 173.877 152.02 174.232C152.748 174.568 153.308 175.053 153.7 175.688C154.092 176.323 154.288 177.097 154.288 178.012C154.288 179.188 153.905 180.187 153.14 181.008C152.393 181.829 151.441 182.576 150.284 183.248L155.688 188.456C156.173 187.877 156.565 187.215 156.864 186.468C157.181 185.703 157.442 184.881 157.648 184.004H160.14C159.841 185.199 159.468 186.309 159.02 187.336C158.572 188.363 157.993 189.259 157.284 190.024L161.372 194H158.04L155.604 191.648C155.156 192.04 154.689 192.404 154.204 192.74C153.737 193.057 153.224 193.328 152.664 193.552C152.104 193.776 151.497 193.953 150.844 194.084C150.209 194.215 149.5 194.28 148.716 194.28C147.428 194.28 146.308 194.075 145.356 193.664C144.422 193.235 143.694 192.609 143.172 191.788C142.668 190.967 142.416 189.968 142.416 188.792C142.416 187.84 142.584 187.019 142.92 186.328C143.274 185.637 143.778 185.021 144.432 184.48C145.085 183.939 145.85 183.416 146.728 182.912C146.336 182.464 145.953 181.997 145.58 181.512C145.206 181.027 144.898 180.504 144.656 179.944C144.413 179.365 144.292 178.74 144.292 178.068C144.292 177.153 144.497 176.369 144.908 175.716C145.318 175.063 145.906 174.568 146.672 174.232C147.456 173.877 148.38 173.7 149.444 173.7ZM148.212 184.452C147.54 184.844 146.961 185.245 146.476 185.656C146.009 186.048 145.645 186.487 145.384 186.972C145.122 187.457 144.992 188.036 144.992 188.708C144.992 189.735 145.337 190.556 146.028 191.172C146.718 191.788 147.642 192.096 148.8 192.096C149.994 192.096 151.021 191.9 151.88 191.508C152.738 191.116 153.457 190.649 154.036 190.108L148.212 184.452ZM149.36 175.716C148.576 175.716 147.932 175.921 147.428 176.332C146.942 176.743 146.7 177.312 146.7 178.04C146.7 178.712 146.877 179.337 147.232 179.916C147.586 180.476 148.1 181.101 148.772 181.792C149.873 181.157 150.657 180.56 151.124 180C151.609 179.421 151.852 178.759 151.852 178.012C151.852 177.34 151.628 176.789 151.18 176.36C150.732 175.931 150.125 175.716 149.36 175.716ZM186.465 189.856C186.465 190.827 186.222 191.639 185.737 192.292C185.252 192.945 184.561 193.44 183.665 193.776C182.769 194.112 181.705 194.28 180.473 194.28C179.428 194.28 178.522 194.196 177.757 194.028C177.01 193.86 176.348 193.627 175.769 193.328V191.088C176.366 191.387 177.085 191.667 177.925 191.928C178.784 192.171 179.652 192.292 180.529 192.292C181.78 192.292 182.685 192.096 183.245 191.704C183.805 191.293 184.085 190.752 184.085 190.08C184.085 189.707 183.982 189.371 183.777 189.072C183.572 188.773 183.198 188.475 182.657 188.176C182.134 187.877 181.378 187.541 180.389 187.168C179.418 186.795 178.588 186.421 177.897 186.048C177.206 185.675 176.674 185.227 176.301 184.704C175.928 184.181 175.741 183.509 175.741 182.688C175.741 181.419 176.254 180.439 177.281 179.748C178.326 179.057 179.689 178.712 181.369 178.712C182.284 178.712 183.133 178.805 183.917 178.992C184.72 179.16 185.466 179.403 186.157 179.72L185.317 181.68C184.906 181.493 184.468 181.335 184.001 181.204C183.553 181.055 183.096 180.943 182.629 180.868C182.162 180.775 181.686 180.728 181.201 180.728C180.193 180.728 179.418 180.896 178.877 181.232C178.354 181.549 178.093 181.988 178.093 182.548C178.093 182.959 178.214 183.313 178.457 183.612C178.7 183.892 179.101 184.172 179.661 184.452C180.24 184.713 181.005 185.031 181.957 185.404C182.909 185.759 183.721 186.123 184.393 186.496C185.065 186.869 185.578 187.327 185.933 187.868C186.288 188.391 186.465 189.053 186.465 189.856ZM198.575 178.74C200.405 178.74 201.758 179.141 202.635 179.944C203.513 180.747 203.951 182.025 203.951 183.78V194H202.159L201.683 191.872H201.571C201.142 192.413 200.694 192.871 200.227 193.244C199.779 193.599 199.257 193.86 198.659 194.028C198.081 194.196 197.371 194.28 196.531 194.28C195.635 194.28 194.823 194.121 194.095 193.804C193.386 193.487 192.826 193.001 192.415 192.348C192.005 191.676 191.799 190.836 191.799 189.828C191.799 188.335 192.387 187.187 193.563 186.384C194.739 185.563 196.55 185.115 198.995 185.04L201.543 184.956V184.06C201.543 182.809 201.273 181.941 200.731 181.456C200.19 180.971 199.425 180.728 198.435 180.728C197.651 180.728 196.905 180.849 196.195 181.092C195.486 181.316 194.823 181.577 194.207 181.876L193.451 180.028C194.105 179.673 194.879 179.375 195.775 179.132C196.671 178.871 197.605 178.74 198.575 178.74ZM199.303 186.748C197.437 186.823 196.139 187.121 195.411 187.644C194.702 188.167 194.347 188.904 194.347 189.856C194.347 190.696 194.599 191.312 195.103 191.704C195.626 192.096 196.289 192.292 197.091 192.292C198.361 192.292 199.415 191.947 200.255 191.256C201.095 190.547 201.515 189.464 201.515 188.008V186.664L199.303 186.748ZM214.691 194L209.007 178.992H211.639L214.831 187.84C214.98 188.251 215.139 188.708 215.307 189.212C215.475 189.716 215.624 190.201 215.755 190.668C215.885 191.116 215.979 191.499 216.035 191.816H216.147C216.221 191.499 216.324 191.107 216.455 190.64C216.604 190.173 216.763 189.688 216.931 189.184C217.117 188.68 217.276 188.232 217.407 187.84L220.599 178.992H223.231L217.519 194H214.691ZM234.201 178.712C235.489 178.712 236.591 178.992 237.505 179.552C238.439 180.112 239.148 180.905 239.633 181.932C240.137 182.94 240.389 184.125 240.389 185.488V186.972H230.113C230.151 188.671 230.58 189.968 231.401 190.864C232.241 191.741 233.408 192.18 234.901 192.18C235.853 192.18 236.693 192.096 237.421 191.928C238.168 191.741 238.933 191.48 239.717 191.144V193.3C238.952 193.636 238.196 193.879 237.449 194.028C236.703 194.196 235.816 194.28 234.789 194.28C233.371 194.28 232.111 193.991 231.009 193.412C229.927 192.833 229.077 191.975 228.461 190.836C227.864 189.679 227.565 188.269 227.565 186.608C227.565 184.965 227.836 183.556 228.377 182.38C228.937 181.204 229.712 180.299 230.701 179.664C231.709 179.029 232.876 178.712 234.201 178.712ZM234.173 180.728C232.997 180.728 232.064 181.111 231.373 181.876C230.701 182.623 230.3 183.668 230.169 185.012H237.813C237.813 184.153 237.683 183.407 237.421 182.772C237.16 182.137 236.759 181.643 236.217 181.288C235.695 180.915 235.013 180.728 234.173 180.728ZM262.096 192.264C262.469 192.264 262.852 192.236 263.244 192.18C263.636 192.105 263.953 192.031 264.196 191.956V193.832C263.934 193.963 263.561 194.065 263.076 194.14C262.59 194.233 262.124 194.28 261.676 194.28C260.892 194.28 260.164 194.149 259.492 193.888C258.838 193.608 258.306 193.132 257.896 192.46C257.485 191.788 257.28 190.845 257.28 189.632V180.896H255.152V179.72L257.308 178.74L258.288 175.548H259.744V178.992H264.084V180.896H259.744V189.576C259.744 190.491 259.958 191.172 260.388 191.62C260.836 192.049 261.405 192.264 262.096 192.264ZM272.465 178.964C272.465 179.319 272.446 179.683 272.409 180.056C272.39 180.429 272.362 180.765 272.325 181.064H272.493C272.81 180.541 273.211 180.112 273.697 179.776C274.182 179.44 274.723 179.188 275.321 179.02C275.918 178.833 276.534 178.74 277.169 178.74C278.382 178.74 279.39 178.936 280.193 179.328C281.014 179.701 281.63 180.289 282.041 181.092C282.451 181.895 282.657 182.94 282.657 184.228V194H280.221V184.396C280.221 183.183 279.95 182.277 279.409 181.68C278.867 181.083 278.018 180.784 276.861 180.784C275.741 180.784 274.863 180.999 274.229 181.428C273.594 181.839 273.137 182.455 272.857 183.276C272.595 184.079 272.465 185.068 272.465 186.244V194H270.001V172.72H272.465V178.964ZM295.905 178.712C297.193 178.712 298.295 178.992 299.209 179.552C300.143 180.112 300.852 180.905 301.337 181.932C301.841 182.94 302.093 184.125 302.093 185.488V186.972H291.817C291.855 188.671 292.284 189.968 293.105 190.864C293.945 191.741 295.112 192.18 296.605 192.18C297.557 192.18 298.397 192.096 299.125 191.928C299.872 191.741 300.637 191.48 301.421 191.144V193.3C300.656 193.636 299.9 193.879 299.153 194.028C298.407 194.196 297.52 194.28 296.493 194.28C295.075 194.28 293.815 193.991 292.713 193.412C291.631 192.833 290.781 191.975 290.165 190.836C289.568 189.679 289.269 188.269 289.269 186.608C289.269 184.965 289.54 183.556 290.081 182.38C290.641 181.204 291.416 180.299 292.405 179.664C293.413 179.029 294.58 178.712 295.905 178.712ZM295.877 180.728C294.701 180.728 293.768 181.111 293.077 181.876C292.405 182.623 292.004 183.668 291.873 185.012H299.517C299.517 184.153 299.387 183.407 299.125 182.772C298.864 182.137 298.463 181.643 297.921 181.288C297.399 180.915 296.717 180.728 295.877 180.728ZM80.8143 224.468C80.8143 225.719 80.6463 226.829 80.3103 227.8C79.993 228.752 79.5263 229.564 78.9103 230.236C78.313 230.908 77.5757 231.421 76.6983 231.776C75.8397 232.112 74.8783 232.28 73.8143 232.28C72.825 232.28 71.9103 232.112 71.0703 231.776C70.2303 231.421 69.5023 230.908 68.8863 230.236C68.2703 229.564 67.785 228.752 67.4303 227.8C67.0943 226.829 66.9263 225.719 66.9263 224.468C66.9263 222.807 67.2063 221.407 67.7663 220.268C68.3263 219.111 69.129 218.233 70.1743 217.636C71.2197 217.02 72.461 216.712 73.8983 216.712C75.261 216.712 76.4557 217.02 77.4823 217.636C78.5277 218.233 79.3397 219.111 79.9183 220.268C80.5157 221.407 80.8143 222.807 80.8143 224.468ZM69.4743 224.468C69.4743 225.644 69.6237 226.671 69.9223 227.548C70.2397 228.407 70.725 229.069 71.3783 229.536C72.0317 230.003 72.8623 230.236 73.8703 230.236C74.8783 230.236 75.709 230.003 76.3623 229.536C77.0157 229.069 77.4917 228.407 77.7903 227.548C78.1077 226.671 78.2663 225.644 78.2663 224.468C78.2663 223.273 78.1077 222.256 77.7903 221.416C77.473 220.576 76.9877 219.932 76.3343 219.484C75.6997 219.017 74.869 218.784 73.8423 218.784C72.3117 218.784 71.201 219.288 70.5103 220.296C69.8197 221.304 69.4743 222.695 69.4743 224.468ZM93.5395 232.28C92.2141 232.28 91.0288 232.009 89.9835 231.468C88.9568 230.927 88.1448 230.087 87.5475 228.948C86.9688 227.809 86.6795 226.353 86.6795 224.58C86.6795 222.732 86.9875 221.229 87.6035 220.072C88.2195 218.915 89.0501 218.065 90.0955 217.524C91.1595 216.983 92.3635 216.712 93.7075 216.712C94.4728 216.712 95.2101 216.796 95.9195 216.964C96.6288 217.113 97.2075 217.3 97.6555 217.524L96.8995 219.568C96.4515 219.4 95.9288 219.241 95.3315 219.092C94.7341 218.943 94.1741 218.868 93.6515 218.868C92.6435 218.868 91.8128 219.083 91.1595 219.512C90.5061 219.941 90.0208 220.576 89.7035 221.416C89.3861 222.256 89.2275 223.301 89.2275 224.552C89.2275 225.747 89.3861 226.764 89.7035 227.604C90.0208 228.444 90.4968 229.079 91.1315 229.508C91.7661 229.937 92.5595 230.152 93.5115 230.152C94.3328 230.152 95.0515 230.068 95.6675 229.9C96.3021 229.732 96.8808 229.527 97.4035 229.284V231.468C96.8995 231.729 96.3395 231.925 95.7235 232.056C95.1261 232.205 94.3981 232.28 93.5395 232.28ZM109.569 216.712C110.857 216.712 111.958 216.992 112.873 217.552C113.806 218.112 114.515 218.905 115.001 219.932C115.505 220.94 115.757 222.125 115.757 223.488V224.972H105.481C105.518 226.671 105.947 227.968 106.769 228.864C107.609 229.741 108.775 230.18 110.269 230.18C111.221 230.18 112.061 230.096 112.789 229.928C113.535 229.741 114.301 229.48 115.085 229.144V231.3C114.319 231.636 113.563 231.879 112.817 232.028C112.07 232.196 111.183 232.28 110.157 232.28C108.738 232.28 107.478 231.991 106.377 231.412C105.294 230.833 104.445 229.975 103.829 228.836C103.231 227.679 102.933 226.269 102.933 224.608C102.933 222.965 103.203 221.556 103.745 220.38C104.305 219.204 105.079 218.299 106.069 217.664C107.077 217.029 108.243 216.712 109.569 216.712ZM109.541 218.728C108.365 218.728 107.431 219.111 106.741 219.876C106.069 220.623 105.667 221.668 105.537 223.012H113.181C113.181 222.153 113.05 221.407 112.789 220.772C112.527 220.137 112.126 219.643 111.585 219.288C111.062 218.915 110.381 218.728 109.541 218.728ZM128.061 216.74C129.891 216.74 131.244 217.141 132.121 217.944C132.999 218.747 133.437 220.025 133.437 221.78V232H131.645L131.169 229.872H131.057C130.628 230.413 130.18 230.871 129.713 231.244C129.265 231.599 128.743 231.86 128.145 232.028C127.567 232.196 126.857 232.28 126.017 232.28C125.121 232.28 124.309 232.121 123.581 231.804C122.872 231.487 122.312 231.001 121.901 230.348C121.491 229.676 121.285 228.836 121.285 227.828C121.285 226.335 121.873 225.187 123.049 224.384C124.225 223.563 126.036 223.115 128.481 223.04L131.029 222.956V222.06C131.029 220.809 130.759 219.941 130.217 219.456C129.676 218.971 128.911 218.728 127.921 218.728C127.137 218.728 126.391 218.849 125.681 219.092C124.972 219.316 124.309 219.577 123.693 219.876L122.937 218.028C123.591 217.673 124.365 217.375 125.261 217.132C126.157 216.871 127.091 216.74 128.061 216.74ZM128.789 224.748C126.923 224.823 125.625 225.121 124.897 225.644C124.188 226.167 123.833 226.904 123.833 227.856C123.833 228.696 124.085 229.312 124.589 229.704C125.112 230.096 125.775 230.292 126.577 230.292C127.847 230.292 128.901 229.947 129.741 229.256C130.581 228.547 131.001 227.464 131.001 226.008V224.664L128.789 224.748ZM148.097 216.712C149.889 216.712 151.242 217.151 152.157 218.028C153.071 218.887 153.529 220.287 153.529 222.228V232H151.093V222.396C151.093 221.183 150.822 220.277 150.281 219.68C149.739 219.083 148.89 218.784 147.733 218.784C146.071 218.784 144.923 219.251 144.289 220.184C143.654 221.117 143.337 222.461 143.337 224.216V232H140.873V216.992H142.861L143.225 219.036H143.365C143.701 218.513 144.111 218.084 144.597 217.748C145.101 217.393 145.651 217.132 146.249 216.964C146.846 216.796 147.462 216.712 148.097 216.712ZM162.808 212.008L162.248 219.232H160.708L160.148 212.008H162.808ZM178.721 227.856C178.721 228.827 178.478 229.639 177.993 230.292C177.508 230.945 176.817 231.44 175.921 231.776C175.025 232.112 173.961 232.28 172.729 232.28C171.684 232.28 170.778 232.196 170.013 232.028C169.266 231.86 168.604 231.627 168.025 231.328V229.088C168.622 229.387 169.341 229.667 170.181 229.928C171.04 230.171 171.908 230.292 172.785 230.292C174.036 230.292 174.941 230.096 175.501 229.704C176.061 229.293 176.341 228.752 176.341 228.08C176.341 227.707 176.238 227.371 176.033 227.072C175.828 226.773 175.454 226.475 174.913 226.176C174.39 225.877 173.634 225.541 172.645 225.168C171.674 224.795 170.844 224.421 170.153 224.048C169.462 223.675 168.93 223.227 168.557 222.704C168.184 222.181 167.997 221.509 167.997 220.688C167.997 219.419 168.51 218.439 169.537 217.748C170.582 217.057 171.945 216.712 173.625 216.712C174.54 216.712 175.389 216.805 176.173 216.992C176.976 217.16 177.722 217.403 178.413 217.72L177.573 219.68C177.162 219.493 176.724 219.335 176.257 219.204C175.809 219.055 175.352 218.943 174.885 218.868C174.418 218.775 173.942 218.728 173.457 218.728C172.449 218.728 171.674 218.896 171.133 219.232C170.61 219.549 170.349 219.988 170.349 220.548C170.349 220.959 170.47 221.313 170.713 221.612C170.956 221.892 171.357 222.172 171.917 222.452C172.496 222.713 173.261 223.031 174.213 223.404C175.165 223.759 175.977 224.123 176.649 224.496C177.321 224.869 177.834 225.327 178.189 225.868C178.544 226.391 178.721 227.053 178.721 227.856ZM197.685 216.964C197.685 217.319 197.666 217.683 197.629 218.056C197.61 218.429 197.582 218.765 197.545 219.064H197.713C198.03 218.541 198.432 218.112 198.917 217.776C199.402 217.44 199.944 217.188 200.541 217.02C201.138 216.833 201.754 216.74 202.389 216.74C203.602 216.74 204.61 216.936 205.413 217.328C206.234 217.701 206.85 218.289 207.261 219.092C207.672 219.895 207.877 220.94 207.877 222.228V232H205.441V222.396C205.441 221.183 205.17 220.277 204.629 219.68C204.088 219.083 203.238 218.784 202.081 218.784C200.961 218.784 200.084 218.999 199.449 219.428C198.814 219.839 198.357 220.455 198.077 221.276C197.816 222.079 197.685 223.068 197.685 224.244V232H195.221V210.72H197.685V216.964ZM221.126 216.712C222.414 216.712 223.515 216.992 224.43 217.552C225.363 218.112 226.072 218.905 226.558 219.932C227.062 220.94 227.314 222.125 227.314 223.488V224.972H217.038C217.075 226.671 217.504 227.968 218.326 228.864C219.166 229.741 220.332 230.18 221.826 230.18C222.778 230.18 223.618 230.096 224.346 229.928C225.092 229.741 225.858 229.48 226.642 229.144V231.3C225.876 231.636 225.12 231.879 224.374 232.028C223.627 232.196 222.74 232.28 221.714 232.28C220.295 232.28 219.035 231.991 217.934 231.412C216.851 230.833 216.002 229.975 215.386 228.836C214.788 227.679 214.49 226.269 214.49 224.608C214.49 222.965 214.76 221.556 215.302 220.38C215.862 219.204 216.636 218.299 217.626 217.664C218.634 217.029 219.8 216.712 221.126 216.712ZM221.098 218.728C219.922 218.728 218.988 219.111 218.298 219.876C217.626 220.623 217.224 221.668 217.094 223.012H224.738C224.738 222.153 224.607 221.407 224.346 220.772C224.084 220.137 223.683 219.643 223.142 219.288C222.619 218.915 221.938 218.728 221.098 218.728ZM239.618 216.74C241.448 216.74 242.801 217.141 243.678 217.944C244.556 218.747 244.994 220.025 244.994 221.78V232H243.202L242.726 229.872H242.614C242.185 230.413 241.737 230.871 241.27 231.244C240.822 231.599 240.3 231.86 239.702 232.028C239.124 232.196 238.414 232.28 237.574 232.28C236.678 232.28 235.866 232.121 235.138 231.804C234.429 231.487 233.869 231.001 233.458 230.348C233.048 229.676 232.842 228.836 232.842 227.828C232.842 226.335 233.43 225.187 234.606 224.384C235.782 223.563 237.593 223.115 240.038 223.04L242.586 222.956V222.06C242.586 220.809 242.316 219.941 241.774 219.456C241.233 218.971 240.468 218.728 239.478 218.728C238.694 218.728 237.948 218.849 237.238 219.092C236.529 219.316 235.866 219.577 235.25 219.876L234.494 218.028C235.148 217.673 235.922 217.375 236.818 217.132C237.714 216.871 238.648 216.74 239.618 216.74ZM240.346 224.748C238.48 224.823 237.182 225.121 236.454 225.644C235.745 226.167 235.39 226.904 235.39 227.856C235.39 228.696 235.642 229.312 236.146 229.704C236.669 230.096 237.332 230.292 238.134 230.292C239.404 230.292 240.458 229.947 241.298 229.256C242.138 228.547 242.558 227.464 242.558 226.008V224.664L240.346 224.748ZM254.894 232H252.43V210.72H254.894V232ZM267.46 230.264C267.834 230.264 268.216 230.236 268.608 230.18C269 230.105 269.318 230.031 269.56 229.956V231.832C269.299 231.963 268.926 232.065 268.44 232.14C267.955 232.233 267.488 232.28 267.04 232.28C266.256 232.28 265.528 232.149 264.856 231.888C264.203 231.608 263.671 231.132 263.26 230.46C262.85 229.788 262.644 228.845 262.644 227.632V218.896H260.516V217.72L262.672 216.74L263.652 213.548H265.108V216.992H269.448V218.896H265.108V227.576C265.108 228.491 265.323 229.172 265.752 229.62C266.2 230.049 266.77 230.264 267.46 230.264ZM277.83 216.964C277.83 217.319 277.811 217.683 277.774 218.056C277.755 218.429 277.727 218.765 277.69 219.064H277.858C278.175 218.541 278.576 218.112 279.062 217.776C279.547 217.44 280.088 217.188 280.686 217.02C281.283 216.833 281.899 216.74 282.534 216.74C283.747 216.74 284.755 216.936 285.558 217.328C286.379 217.701 286.995 218.289 287.406 219.092C287.816 219.895 288.022 220.94 288.022 222.228V232H285.586V222.396C285.586 221.183 285.315 220.277 284.774 219.68C284.232 219.083 283.383 218.784 282.226 218.784C281.106 218.784 280.228 218.999 279.594 219.428C278.959 219.839 278.502 220.455 278.222 221.276C277.96 222.079 277.83 223.068 277.83 224.244V232H275.366V210.72H277.83V216.964ZM297.658 226.372H296.062L295.362 212.008H298.358L297.658 226.372ZM295.11 230.488C295.11 229.797 295.278 229.312 295.614 229.032C295.95 228.752 296.361 228.612 296.846 228.612C297.313 228.612 297.714 228.752 298.05 229.032C298.405 229.312 298.582 229.797 298.582 230.488C298.582 231.16 298.405 231.645 298.05 231.944C297.714 232.243 297.313 232.392 296.846 232.392C296.361 232.392 295.95 232.243 295.614 231.944C295.278 231.645 295.11 231.16 295.11 230.488Z" fill="white"/>
<defs>
<filter id="filter0_b_447_23" x="-20" y="-20" width="406" height="406" filterUnits="userSpaceOnUse" color-interpolation-filters="sRGB">
<feFlood flood-opacity="0" result="BackgroundImageFix"/>
<feGaussianBlur in="BackgroundImage" stdDeviation="10"/>
<feComposite in2="SourceAlpha" operator="in" result="effect1_backgroundBlur_447_23"/>
<feBlend mode="normal" in="SourceGraphic" in2="effect1_backgroundBlur_447_23" result="shape"/>
</filter>
</defs>
</svg>
