<svg width="366" height="366" viewBox="0 0 366 366" fill="none" xmlns="http://www.w3.org/2000/svg">
<g filter="url(#filter0_b_301_24)">
<circle cx="183" cy="183" r="183" fill="#176782"/>
</g>
<path d="M73.4358 134.976C73.4358 136.525 73.2398 137.935 72.8478 139.204C72.4558 140.455 71.8678 141.537 71.0838 142.452C70.3185 143.367 69.3571 144.067 68.1998 144.552C67.0611 145.037 65.7358 145.28 64.2238 145.28C62.6558 145.28 61.2931 145.037 60.1358 144.552C58.9785 144.048 58.0171 143.348 57.2518 142.452C56.4865 141.537 55.9171 140.445 55.5438 139.176C55.1705 137.907 54.9838 136.497 54.9838 134.948C54.9838 132.895 55.3198 131.103 55.9918 129.572C56.6638 128.041 57.6811 126.847 59.0438 125.988C60.4251 125.129 62.1611 124.7 64.2518 124.7C66.2491 124.7 67.9291 125.129 69.2918 125.988C70.6545 126.828 71.6811 128.023 72.3718 129.572C73.0811 131.103 73.4358 132.904 73.4358 134.976ZM57.6438 134.976C57.6438 136.656 57.8771 138.103 58.3438 139.316C58.8105 140.529 59.5291 141.463 60.4998 142.116C61.4891 142.769 62.7305 143.096 64.2238 143.096C65.7358 143.096 66.9678 142.769 67.9198 142.116C68.8905 141.463 69.6091 140.529 70.0758 139.316C70.5425 138.103 70.7758 136.656 70.7758 134.976C70.7758 132.456 70.2531 130.487 69.2078 129.068C68.1625 127.631 66.5105 126.912 64.2518 126.912C62.7398 126.912 61.4891 127.239 60.4998 127.892C59.5291 128.527 58.8105 129.451 58.3438 130.664C57.8771 131.859 57.6438 133.296 57.6438 134.976ZM83.6348 145L77.9508 129.992H80.5828L83.7748 138.84C83.9241 139.251 84.0828 139.708 84.2508 140.212C84.4188 140.716 84.5681 141.201 84.6988 141.668C84.8295 142.116 84.9228 142.499 84.9788 142.816H85.0908C85.1655 142.499 85.2681 142.107 85.3988 141.64C85.5481 141.173 85.7068 140.688 85.8748 140.184C86.0615 139.68 86.2201 139.232 86.3508 138.84L89.5428 129.992H92.1748L86.4628 145H83.6348ZM103.146 129.712C104.434 129.712 105.535 129.992 106.45 130.552C107.383 131.112 108.092 131.905 108.578 132.932C109.082 133.94 109.334 135.125 109.334 136.488V137.972H99.0575C99.0949 139.671 99.5242 140.968 100.346 141.864C101.186 142.741 102.352 143.18 103.846 143.18C104.798 143.18 105.638 143.096 106.366 142.928C107.112 142.741 107.878 142.48 108.662 142.144V144.3C107.896 144.636 107.14 144.879 106.394 145.028C105.647 145.196 104.76 145.28 103.734 145.28C102.315 145.28 101.055 144.991 99.9535 144.412C98.8709 143.833 98.0215 142.975 97.4055 141.836C96.8082 140.679 96.5095 139.269 96.5095 137.608C96.5095 135.965 96.7802 134.556 97.3215 133.38C97.8815 132.204 98.6562 131.299 99.6455 130.664C100.654 130.029 101.82 129.712 103.146 129.712ZM103.118 131.728C101.942 131.728 101.008 132.111 100.318 132.876C99.6455 133.623 99.2442 134.668 99.1135 136.012H106.758C106.758 135.153 106.627 134.407 106.366 133.772C106.104 133.137 105.703 132.643 105.162 132.288C104.639 131.915 103.958 131.728 103.118 131.728ZM122.954 129.712C123.234 129.712 123.533 129.731 123.85 129.768C124.186 129.787 124.476 129.824 124.718 129.88L124.41 132.148C124.168 132.092 123.897 132.045 123.598 132.008C123.318 131.971 123.048 131.952 122.786 131.952C122.208 131.952 121.657 132.073 121.134 132.316C120.612 132.559 120.145 132.904 119.734 133.352C119.324 133.781 118.997 134.304 118.754 134.92C118.53 135.536 118.418 136.227 118.418 136.992V145H115.954V129.992H117.97L118.25 132.736H118.362C118.68 132.176 119.062 131.672 119.51 131.224C119.958 130.757 120.472 130.393 121.05 130.132C121.629 129.852 122.264 129.712 122.954 129.712ZM152.574 145H139.358V142.956L144.594 137.664C145.602 136.656 146.451 135.76 147.142 134.976C147.833 134.192 148.355 133.427 148.71 132.68C149.065 131.915 149.242 131.084 149.242 130.188C149.242 129.087 148.915 128.256 148.262 127.696C147.609 127.117 146.759 126.828 145.714 126.828C144.743 126.828 143.885 126.996 143.138 127.332C142.41 127.668 141.663 128.135 140.898 128.732L139.582 127.08C140.105 126.632 140.674 126.231 141.29 125.876C141.925 125.521 142.606 125.241 143.334 125.036C144.081 124.831 144.874 124.728 145.714 124.728C146.965 124.728 148.038 124.943 148.934 125.372C149.83 125.801 150.521 126.417 151.006 127.22C151.51 128.004 151.762 128.947 151.762 130.048C151.762 130.832 151.641 131.579 151.398 132.288C151.155 132.979 150.81 133.66 150.362 134.332C149.914 135.004 149.373 135.685 148.738 136.376C148.103 137.067 147.403 137.785 146.638 138.532L142.466 142.648V142.76H152.574V145ZM171.482 134.976C171.482 136.6 171.36 138.047 171.118 139.316C170.875 140.585 170.483 141.668 169.942 142.564C169.419 143.441 168.728 144.113 167.87 144.58C167.03 145.047 166.012 145.28 164.818 145.28C163.324 145.28 162.083 144.869 161.094 144.048C160.123 143.227 159.395 142.051 158.91 140.52C158.443 138.971 158.21 137.123 158.21 134.976C158.21 132.811 158.424 130.963 158.854 129.432C159.302 127.901 160.011 126.735 160.982 125.932C161.952 125.111 163.231 124.7 164.818 124.7C166.311 124.7 167.552 125.111 168.542 125.932C169.531 126.735 170.268 127.901 170.754 129.432C171.239 130.963 171.482 132.811 171.482 134.976ZM160.674 134.976C160.674 136.805 160.804 138.327 161.066 139.54C161.346 140.753 161.784 141.668 162.382 142.284C162.998 142.881 163.81 143.18 164.818 143.18C165.826 143.18 166.628 142.881 167.226 142.284C167.842 141.687 168.29 140.781 168.57 139.568C168.85 138.336 168.99 136.805 168.99 134.976C168.99 133.147 168.85 131.635 168.57 130.44C168.29 129.227 167.842 128.321 167.226 127.724C166.628 127.108 165.826 126.8 164.818 126.8C163.81 126.8 162.998 127.108 162.382 127.724C161.784 128.321 161.346 129.227 161.066 130.44C160.804 131.635 160.674 133.147 160.674 134.976ZM185.762 129.992H188.394L191.642 138.532C191.829 139.036 191.997 139.521 192.146 139.988C192.314 140.455 192.464 140.912 192.594 141.36C192.725 141.789 192.828 142.209 192.902 142.62H193.014C193.126 142.153 193.304 141.547 193.546 140.8C193.789 140.035 194.041 139.269 194.302 138.504L197.354 129.992H200.014L193.546 147.072C193.192 148.005 192.772 148.817 192.286 149.508C191.82 150.217 191.241 150.759 190.55 151.132C189.878 151.524 189.057 151.72 188.086 151.72C187.638 151.72 187.246 151.692 186.91 151.636C186.574 151.599 186.285 151.552 186.042 151.496V149.536C186.248 149.573 186.49 149.611 186.77 149.648C187.069 149.685 187.377 149.704 187.694 149.704C188.273 149.704 188.768 149.592 189.178 149.368C189.608 149.163 189.972 148.855 190.27 148.444C190.569 148.052 190.821 147.585 191.026 147.044L191.81 145.056L185.762 129.992ZM210.984 129.712C212.272 129.712 213.373 129.992 214.288 130.552C215.221 131.112 215.93 131.905 216.416 132.932C216.92 133.94 217.172 135.125 217.172 136.488V137.972H206.896C206.933 139.671 207.362 140.968 208.184 141.864C209.024 142.741 210.19 143.18 211.684 143.18C212.636 143.18 213.476 143.096 214.204 142.928C214.95 142.741 215.716 142.48 216.5 142.144V144.3C215.734 144.636 214.978 144.879 214.232 145.028C213.485 145.196 212.598 145.28 211.572 145.28C210.153 145.28 208.893 144.991 207.792 144.412C206.709 143.833 205.86 142.975 205.244 141.836C204.646 140.679 204.348 139.269 204.348 137.608C204.348 135.965 204.618 134.556 205.16 133.38C205.72 132.204 206.494 131.299 207.484 130.664C208.492 130.029 209.658 129.712 210.984 129.712ZM210.956 131.728C209.78 131.728 208.846 132.111 208.156 132.876C207.484 133.623 207.082 134.668 206.952 136.012H214.596C214.596 135.153 214.465 134.407 214.204 133.772C213.942 133.137 213.541 132.643 213 132.288C212.477 131.915 211.796 131.728 210.956 131.728ZM229.477 129.74C231.306 129.74 232.659 130.141 233.537 130.944C234.414 131.747 234.853 133.025 234.853 134.78V145H233.061L232.585 142.872H232.473C232.043 143.413 231.595 143.871 231.129 144.244C230.681 144.599 230.158 144.86 229.561 145.028C228.982 145.196 228.273 145.28 227.433 145.28C226.537 145.28 225.725 145.121 224.997 144.804C224.287 144.487 223.727 144.001 223.317 143.348C222.906 142.676 222.701 141.836 222.701 140.828C222.701 139.335 223.289 138.187 224.465 137.384C225.641 136.563 227.451 136.115 229.897 136.04L232.445 135.956V135.06C232.445 133.809 232.174 132.941 231.633 132.456C231.091 131.971 230.326 131.728 229.337 131.728C228.553 131.728 227.806 131.849 227.097 132.092C226.387 132.316 225.725 132.577 225.109 132.876L224.353 131.028C225.006 130.673 225.781 130.375 226.677 130.132C227.573 129.871 228.506 129.74 229.477 129.74ZM230.205 137.748C228.338 137.823 227.041 138.121 226.313 138.644C225.603 139.167 225.249 139.904 225.249 140.856C225.249 141.696 225.501 142.312 226.005 142.704C226.527 143.096 227.19 143.292 227.993 143.292C229.262 143.292 230.317 142.947 231.157 142.256C231.997 141.547 232.417 140.464 232.417 139.008V137.664L230.205 137.748ZM249.288 129.712C249.568 129.712 249.866 129.731 250.184 129.768C250.52 129.787 250.809 129.824 251.052 129.88L250.744 132.148C250.501 132.092 250.23 132.045 249.932 132.008C249.652 131.971 249.381 131.952 249.12 131.952C248.541 131.952 247.99 132.073 247.468 132.316C246.945 132.559 246.478 132.904 246.068 133.352C245.657 133.781 245.33 134.304 245.088 134.92C244.864 135.536 244.752 136.227 244.752 136.992V145H242.288V129.992H244.304L244.584 132.736H244.696C245.013 132.176 245.396 131.672 245.844 131.224C246.292 130.757 246.805 130.393 247.384 130.132C247.962 129.852 248.597 129.712 249.288 129.712ZM266.426 140.856C266.426 141.827 266.184 142.639 265.698 143.292C265.213 143.945 264.522 144.44 263.626 144.776C262.73 145.112 261.666 145.28 260.434 145.28C259.389 145.28 258.484 145.196 257.718 145.028C256.972 144.86 256.309 144.627 255.73 144.328V142.088C256.328 142.387 257.046 142.667 257.886 142.928C258.745 143.171 259.613 143.292 260.49 143.292C261.741 143.292 262.646 143.096 263.206 142.704C263.766 142.293 264.046 141.752 264.046 141.08C264.046 140.707 263.944 140.371 263.738 140.072C263.533 139.773 263.16 139.475 262.618 139.176C262.096 138.877 261.34 138.541 260.35 138.168C259.38 137.795 258.549 137.421 257.858 137.048C257.168 136.675 256.636 136.227 256.262 135.704C255.889 135.181 255.702 134.509 255.702 133.688C255.702 132.419 256.216 131.439 257.242 130.748C258.288 130.057 259.65 129.712 261.33 129.712C262.245 129.712 263.094 129.805 263.878 129.992C264.681 130.16 265.428 130.403 266.118 130.72L265.278 132.68C264.868 132.493 264.429 132.335 263.962 132.204C263.514 132.055 263.057 131.943 262.59 131.868C262.124 131.775 261.648 131.728 261.162 131.728C260.154 131.728 259.38 131.896 258.838 132.232C258.316 132.549 258.054 132.988 258.054 133.548C258.054 133.959 258.176 134.313 258.418 134.612C258.661 134.892 259.062 135.172 259.622 135.452C260.201 135.713 260.966 136.031 261.918 136.404C262.87 136.759 263.682 137.123 264.354 137.496C265.026 137.869 265.54 138.327 265.894 138.868C266.249 139.391 266.426 140.053 266.426 140.856ZM295.974 137.468C295.974 138.719 295.806 139.829 295.47 140.8C295.153 141.752 294.686 142.564 294.07 143.236C293.473 143.908 292.735 144.421 291.858 144.776C290.999 145.112 290.038 145.28 288.974 145.28C287.985 145.28 287.07 145.112 286.23 144.776C285.39 144.421 284.662 143.908 284.046 143.236C283.43 142.564 282.945 141.752 282.59 140.8C282.254 139.829 282.086 138.719 282.086 137.468C282.086 135.807 282.366 134.407 282.926 133.268C283.486 132.111 284.289 131.233 285.334 130.636C286.379 130.02 287.621 129.712 289.058 129.712C290.421 129.712 291.615 130.02 292.642 130.636C293.687 131.233 294.499 132.111 295.078 133.268C295.675 134.407 295.974 135.807 295.974 137.468ZM284.634 137.468C284.634 138.644 284.783 139.671 285.082 140.548C285.399 141.407 285.885 142.069 286.538 142.536C287.191 143.003 288.022 143.236 289.03 143.236C290.038 143.236 290.869 143.003 291.522 142.536C292.175 142.069 292.651 141.407 292.95 140.548C293.267 139.671 293.426 138.644 293.426 137.468C293.426 136.273 293.267 135.256 292.95 134.416C292.633 133.576 292.147 132.932 291.494 132.484C290.859 132.017 290.029 131.784 289.002 131.784C287.471 131.784 286.361 132.288 285.67 133.296C284.979 134.304 284.634 135.695 284.634 137.468ZM309.595 131.896H305.815V145H303.351V131.896H300.719V130.748L303.351 129.908V129.04C303.351 127.752 303.538 126.707 303.911 125.904C304.303 125.101 304.863 124.513 305.591 124.14C306.319 123.767 307.197 123.58 308.223 123.58C308.821 123.58 309.362 123.636 309.847 123.748C310.351 123.841 310.781 123.953 311.135 124.084L310.491 126.016C310.193 125.923 309.847 125.829 309.455 125.736C309.063 125.643 308.662 125.596 308.251 125.596C307.43 125.596 306.814 125.876 306.403 126.436C306.011 126.977 305.815 127.836 305.815 129.012V129.992H309.595V131.896ZM52.661 178.856C52.661 179.827 52.4183 180.639 51.933 181.292C51.4477 181.945 50.757 182.44 49.861 182.776C48.965 183.112 47.901 183.28 46.669 183.28C45.6237 183.28 44.7183 183.196 43.953 183.028C43.2063 182.86 42.5437 182.627 41.965 182.328V180.088C42.5623 180.387 43.281 180.667 44.121 180.928C44.9797 181.171 45.8477 181.292 46.725 181.292C47.9757 181.292 48.881 181.096 49.441 180.704C50.001 180.293 50.281 179.752 50.281 179.08C50.281 178.707 50.1783 178.371 49.973 178.072C49.7677 177.773 49.3943 177.475 48.853 177.176C48.3303 176.877 47.5743 176.541 46.585 176.168C45.6143 175.795 44.7837 175.421 44.093 175.048C43.4023 174.675 42.8703 174.227 42.497 173.704C42.1237 173.181 41.937 172.509 41.937 171.688C41.937 170.419 42.4503 169.439 43.477 168.748C44.5223 168.057 45.885 167.712 47.565 167.712C48.4797 167.712 49.329 167.805 50.113 167.992C50.9157 168.16 51.6623 168.403 52.353 168.72L51.513 170.68C51.1023 170.493 50.6637 170.335 50.197 170.204C49.749 170.055 49.2917 169.943 48.825 169.868C48.3583 169.775 47.8823 169.728 47.397 169.728C46.389 169.728 45.6143 169.896 45.073 170.232C44.5503 170.549 44.289 170.988 44.289 171.548C44.289 171.959 44.4103 172.313 44.653 172.612C44.8957 172.892 45.297 173.172 45.857 173.452C46.4357 173.713 47.201 174.031 48.153 174.404C49.105 174.759 49.917 175.123 50.589 175.496C51.261 175.869 51.7743 176.327 52.129 176.868C52.4837 177.391 52.661 178.053 52.661 178.856ZM61.5234 172.836C61.5234 173.135 61.5048 173.527 61.4674 174.012C61.4488 174.497 61.4301 174.917 61.4114 175.272H61.5234C61.6354 175.123 61.8034 174.908 62.0274 174.628C62.2514 174.348 62.4754 174.068 62.6994 173.788C62.9421 173.489 63.1474 173.247 63.3154 173.06L68.1034 167.992H70.9874L64.9114 174.404L71.4074 183H68.4394L63.2314 176L61.5234 177.484V183H59.0874V161.72H61.5234V172.836ZM79.3085 167.992V183H76.8445V167.992H79.3085ZM78.1045 162.364C78.4778 162.364 78.8045 162.495 79.0845 162.756C79.3831 162.999 79.5325 163.391 79.5325 163.932C79.5325 164.455 79.3831 164.847 79.0845 165.108C78.8045 165.369 78.4778 165.5 78.1045 165.5C77.6938 165.5 77.3485 165.369 77.0685 165.108C76.7885 164.847 76.6485 164.455 76.6485 163.932C76.6485 163.391 76.7885 162.999 77.0685 162.756C77.3485 162.495 77.6938 162.364 78.1045 162.364ZM89.3272 183H86.8632V161.72H89.3272V183ZM99.346 183H96.882V161.72H99.346V183ZM112.697 167.712C113.985 167.712 115.086 167.992 116.001 168.552C116.934 169.112 117.643 169.905 118.129 170.932C118.633 171.94 118.885 173.125 118.885 174.488V175.972H108.609C108.646 177.671 109.075 178.968 109.897 179.864C110.737 180.741 111.903 181.18 113.397 181.18C114.349 181.18 115.189 181.096 115.917 180.928C116.663 180.741 117.429 180.48 118.213 180.144V182.3C117.447 182.636 116.691 182.879 115.945 183.028C115.198 183.196 114.311 183.28 113.285 183.28C111.866 183.28 110.606 182.991 109.505 182.412C108.422 181.833 107.573 180.975 106.957 179.836C106.359 178.679 106.061 177.269 106.061 175.608C106.061 173.965 106.331 172.556 106.873 171.38C107.433 170.204 108.207 169.299 109.197 168.664C110.205 168.029 111.371 167.712 112.697 167.712ZM112.669 169.728C111.493 169.728 110.559 170.111 109.869 170.876C109.197 171.623 108.795 172.668 108.665 174.012H116.309C116.309 173.153 116.178 172.407 115.917 171.772C115.655 171.137 115.254 170.643 114.713 170.288C114.19 169.915 113.509 169.728 112.669 169.728ZM130.825 183.28C128.959 183.28 127.465 182.636 126.345 181.348C125.225 180.041 124.665 178.1 124.665 175.524C124.665 172.948 125.225 171.007 126.345 169.7C127.484 168.375 128.987 167.712 130.853 167.712C131.637 167.712 132.319 167.815 132.897 168.02C133.476 168.207 133.98 168.468 134.409 168.804C134.839 169.14 135.203 169.513 135.501 169.924H135.669C135.651 169.681 135.613 169.327 135.557 168.86C135.52 168.375 135.501 167.992 135.501 167.712V161.72H137.965V183H135.977L135.613 180.984H135.501C135.203 181.413 134.839 181.805 134.409 182.16C133.98 182.496 133.467 182.767 132.869 182.972C132.291 183.177 131.609 183.28 130.825 183.28ZM131.217 181.236C132.804 181.236 133.915 180.807 134.549 179.948C135.203 179.071 135.529 177.755 135.529 176V175.552C135.529 173.685 135.221 172.257 134.605 171.268C133.989 170.26 132.851 169.756 131.189 169.756C129.864 169.756 128.865 170.288 128.193 171.352C127.54 172.397 127.213 173.807 127.213 175.58C127.213 177.372 127.54 178.763 128.193 179.752C128.865 180.741 129.873 181.236 131.217 181.236ZM161.401 167.712C162.689 167.712 163.791 167.992 164.705 168.552C165.639 169.112 166.348 169.905 166.833 170.932C167.337 171.94 167.589 173.125 167.589 174.488V175.972H157.313C157.351 177.671 157.78 178.968 158.601 179.864C159.441 180.741 160.608 181.18 162.101 181.18C163.053 181.18 163.893 181.096 164.621 180.928C165.368 180.741 166.133 180.48 166.917 180.144V182.3C166.152 182.636 165.396 182.879 164.649 183.028C163.903 183.196 163.016 183.28 161.989 183.28C160.571 183.28 159.311 182.991 158.209 182.412C157.127 181.833 156.277 180.975 155.661 179.836C155.064 178.679 154.765 177.269 154.765 175.608C154.765 173.965 155.036 172.556 155.577 171.38C156.137 170.204 156.912 169.299 157.901 168.664C158.909 168.029 160.076 167.712 161.401 167.712ZM161.373 169.728C160.197 169.728 159.264 170.111 158.573 170.876C157.901 171.623 157.5 172.668 157.369 174.012H165.013C165.013 173.153 164.883 172.407 164.621 171.772C164.36 171.137 163.959 170.643 163.417 170.288C162.895 169.915 162.213 169.728 161.373 169.728ZM177.219 175.328L172.039 167.992H174.839L178.703 173.648L182.539 167.992H185.311L180.131 175.328L185.591 183H182.791L178.703 177.008L174.559 183H171.787L177.219 175.328ZM198.424 167.712C200.272 167.712 201.756 168.356 202.876 169.644C204.014 170.932 204.584 172.873 204.584 175.468C204.584 177.167 204.322 178.604 203.8 179.78C203.296 180.937 202.577 181.815 201.644 182.412C200.729 182.991 199.646 183.28 198.396 183.28C197.63 183.28 196.949 183.177 196.352 182.972C195.754 182.767 195.241 182.505 194.812 182.188C194.401 181.852 194.046 181.488 193.748 181.096H193.58C193.617 181.413 193.654 181.815 193.692 182.3C193.729 182.785 193.748 183.205 193.748 183.56V189.72H191.284V167.992H193.3L193.636 170.036H193.748C194.046 169.607 194.401 169.215 194.812 168.86C195.241 168.505 195.745 168.225 196.324 168.02C196.921 167.815 197.621 167.712 198.424 167.712ZM197.976 169.784C196.968 169.784 196.156 169.98 195.54 170.372C194.924 170.745 194.476 171.315 194.196 172.08C193.916 172.845 193.766 173.816 193.748 174.992V175.468C193.748 176.7 193.878 177.745 194.14 178.604C194.401 179.463 194.84 180.116 195.456 180.564C196.09 181.012 196.949 181.236 198.032 181.236C198.946 181.236 199.693 180.984 200.272 180.48C200.869 179.976 201.308 179.295 201.588 178.436C201.886 177.559 202.036 176.56 202.036 175.44C202.036 173.723 201.7 172.351 201.028 171.324C200.374 170.297 199.357 169.784 197.976 169.784ZM217.106 167.712C218.394 167.712 219.495 167.992 220.41 168.552C221.343 169.112 222.053 169.905 222.538 170.932C223.042 171.94 223.294 173.125 223.294 174.488V175.972H213.018C213.055 177.671 213.485 178.968 214.306 179.864C215.146 180.741 216.313 181.18 217.806 181.18C218.758 181.18 219.598 181.096 220.326 180.928C221.073 180.741 221.838 180.48 222.622 180.144V182.3C221.857 182.636 221.101 182.879 220.354 183.028C219.607 183.196 218.721 183.28 217.694 183.28C216.275 183.28 215.015 182.991 213.914 182.412C212.831 181.833 211.982 180.975 211.366 179.836C210.769 178.679 210.47 177.269 210.47 175.608C210.47 173.965 210.741 172.556 211.282 171.38C211.842 170.204 212.617 169.299 213.606 168.664C214.614 168.029 215.781 167.712 217.106 167.712ZM217.078 169.728C215.902 169.728 214.969 170.111 214.278 170.876C213.606 171.623 213.205 172.668 213.074 174.012H220.718C220.718 173.153 220.587 172.407 220.326 171.772C220.065 171.137 219.663 170.643 219.122 170.288C218.599 169.915 217.918 169.728 217.078 169.728ZM236.915 167.712C237.195 167.712 237.493 167.731 237.811 167.768C238.147 167.787 238.436 167.824 238.679 167.88L238.371 170.148C238.128 170.092 237.857 170.045 237.559 170.008C237.279 169.971 237.008 169.952 236.747 169.952C236.168 169.952 235.617 170.073 235.095 170.316C234.572 170.559 234.105 170.904 233.695 171.352C233.284 171.781 232.957 172.304 232.715 172.92C232.491 173.536 232.379 174.227 232.379 174.992V183H229.915V167.992H231.931L232.211 170.736H232.323C232.64 170.176 233.023 169.672 233.471 169.224C233.919 168.757 234.432 168.393 235.011 168.132C235.589 167.852 236.224 167.712 236.915 167.712ZM246.745 167.992V183H244.281V167.992H246.745ZM245.541 162.364C245.915 162.364 246.241 162.495 246.521 162.756C246.82 162.999 246.969 163.391 246.969 163.932C246.969 164.455 246.82 164.847 246.521 165.108C246.241 165.369 245.915 165.5 245.541 165.5C245.131 165.5 244.785 165.369 244.505 165.108C244.225 164.847 244.085 164.455 244.085 163.932C244.085 163.391 244.225 162.999 244.505 162.756C244.785 162.495 245.131 162.364 245.541 162.364ZM260.096 167.712C261.384 167.712 262.485 167.992 263.4 168.552C264.333 169.112 265.043 169.905 265.528 170.932C266.032 171.94 266.284 173.125 266.284 174.488V175.972H256.008C256.045 177.671 256.475 178.968 257.296 179.864C258.136 180.741 259.303 181.18 260.796 181.18C261.748 181.18 262.588 181.096 263.316 180.928C264.063 180.741 264.828 180.48 265.612 180.144V182.3C264.847 182.636 264.091 182.879 263.344 183.028C262.597 183.196 261.711 183.28 260.684 183.28C259.265 183.28 258.005 182.991 256.904 182.412C255.821 181.833 254.972 180.975 254.356 179.836C253.759 178.679 253.46 177.269 253.46 175.608C253.46 173.965 253.731 172.556 254.272 171.38C254.832 170.204 255.607 169.299 256.596 168.664C257.604 168.029 258.771 167.712 260.096 167.712ZM260.068 169.728C258.892 169.728 257.959 170.111 257.268 170.876C256.596 171.623 256.195 172.668 256.064 174.012H263.708C263.708 173.153 263.577 172.407 263.316 171.772C263.055 171.137 262.653 170.643 262.112 170.288C261.589 169.915 260.908 169.728 260.068 169.728ZM280.129 167.712C281.921 167.712 283.274 168.151 284.189 169.028C285.103 169.887 285.561 171.287 285.561 173.228V183H283.125V173.396C283.125 172.183 282.854 171.277 282.313 170.68C281.771 170.083 280.922 169.784 279.765 169.784C278.103 169.784 276.955 170.251 276.321 171.184C275.686 172.117 275.369 173.461 275.369 175.216V183H272.905V167.992H274.893L275.257 170.036H275.397C275.733 169.513 276.143 169.084 276.629 168.748C277.133 168.393 277.683 168.132 278.281 167.964C278.878 167.796 279.494 167.712 280.129 167.712ZM299.033 183.28C297.708 183.28 296.523 183.009 295.477 182.468C294.451 181.927 293.639 181.087 293.041 179.948C292.463 178.809 292.173 177.353 292.173 175.58C292.173 173.732 292.481 172.229 293.097 171.072C293.713 169.915 294.544 169.065 295.589 168.524C296.653 167.983 297.857 167.712 299.201 167.712C299.967 167.712 300.704 167.796 301.413 167.964C302.123 168.113 302.701 168.3 303.149 168.524L302.393 170.568C301.945 170.4 301.423 170.241 300.825 170.092C300.228 169.943 299.668 169.868 299.145 169.868C298.137 169.868 297.307 170.083 296.653 170.512C296 170.941 295.515 171.576 295.197 172.416C294.88 173.256 294.721 174.301 294.721 175.552C294.721 176.747 294.88 177.764 295.197 178.604C295.515 179.444 295.991 180.079 296.625 180.508C297.26 180.937 298.053 181.152 299.005 181.152C299.827 181.152 300.545 181.068 301.161 180.9C301.796 180.732 302.375 180.527 302.897 180.284V182.468C302.393 182.729 301.833 182.925 301.217 183.056C300.62 183.205 299.892 183.28 299.033 183.28ZM315.062 167.712C316.35 167.712 317.452 167.992 318.366 168.552C319.3 169.112 320.009 169.905 320.494 170.932C320.998 171.94 321.25 173.125 321.25 174.488V175.972H310.974C311.012 177.671 311.441 178.968 312.262 179.864C313.102 180.741 314.269 181.18 315.762 181.18C316.714 181.18 317.554 181.096 318.282 180.928C319.029 180.741 319.794 180.48 320.578 180.144V182.3C319.813 182.636 319.057 182.879 318.31 183.028C317.564 183.196 316.677 183.28 315.65 183.28C314.232 183.28 312.972 182.991 311.87 182.412C310.788 181.833 309.938 180.975 309.322 179.836C308.725 178.679 308.426 177.269 308.426 175.608C308.426 173.965 308.697 172.556 309.238 171.38C309.798 170.204 310.573 169.299 311.562 168.664C312.57 168.029 313.737 167.712 315.062 167.712ZM315.034 169.728C313.858 169.728 312.925 170.111 312.234 170.876C311.562 171.623 311.161 172.668 311.03 174.012H318.674C318.674 173.153 318.544 172.407 318.282 171.772C318.021 171.137 317.62 170.643 317.078 170.288C316.556 169.915 315.874 169.728 315.034 169.728ZM125.32 205.992V221H122.856V205.992H125.32ZM124.116 200.364C124.489 200.364 124.816 200.495 125.096 200.756C125.394 200.999 125.544 201.391 125.544 201.932C125.544 202.455 125.394 202.847 125.096 203.108C124.816 203.369 124.489 203.5 124.116 203.5C123.705 203.5 123.36 203.369 123.08 203.108C122.8 202.847 122.66 202.455 122.66 201.932C122.66 201.391 122.8 200.999 123.08 200.756C123.36 200.495 123.705 200.364 124.116 200.364ZM140.099 205.712C141.891 205.712 143.244 206.151 144.159 207.028C145.073 207.887 145.531 209.287 145.531 211.228V221H143.095V211.396C143.095 210.183 142.824 209.277 142.283 208.68C141.741 208.083 140.892 207.784 139.735 207.784C138.073 207.784 136.925 208.251 136.291 209.184C135.656 210.117 135.339 211.461 135.339 213.216V221H132.875V205.992H134.863L135.227 208.036H135.367C135.703 207.513 136.113 207.084 136.599 206.748C137.103 206.393 137.653 206.132 138.251 205.964C138.848 205.796 139.464 205.712 140.099 205.712ZM160.705 205.992H163.337L166.585 214.532C166.771 215.036 166.939 215.521 167.089 215.988C167.257 216.455 167.406 216.912 167.537 217.36C167.667 217.789 167.77 218.209 167.845 218.62H167.957C168.069 218.153 168.246 217.547 168.489 216.8C168.731 216.035 168.983 215.269 169.245 214.504L172.297 205.992H174.957L168.489 223.072C168.134 224.005 167.714 224.817 167.229 225.508C166.762 226.217 166.183 226.759 165.493 227.132C164.821 227.524 163.999 227.72 163.029 227.72C162.581 227.72 162.189 227.692 161.853 227.636C161.517 227.599 161.227 227.552 160.985 227.496V225.536C161.19 225.573 161.433 225.611 161.713 225.648C162.011 225.685 162.319 225.704 162.637 225.704C163.215 225.704 163.71 225.592 164.121 225.368C164.55 225.163 164.914 224.855 165.213 224.444C165.511 224.052 165.763 223.585 165.969 223.044L166.753 221.056L160.705 205.992ZM185.814 205.74C187.643 205.74 188.997 206.141 189.874 206.944C190.751 207.747 191.19 209.025 191.19 210.78V221H189.398L188.922 218.872H188.81C188.381 219.413 187.933 219.871 187.466 220.244C187.018 220.599 186.495 220.86 185.898 221.028C185.319 221.196 184.61 221.28 183.77 221.28C182.874 221.28 182.062 221.121 181.334 220.804C180.625 220.487 180.065 220.001 179.654 219.348C179.243 218.676 179.038 217.836 179.038 216.828C179.038 215.335 179.626 214.187 180.802 213.384C181.978 212.563 183.789 212.115 186.234 212.04L188.782 211.956V211.06C188.782 209.809 188.511 208.941 187.97 208.456C187.429 207.971 186.663 207.728 185.674 207.728C184.89 207.728 184.143 207.849 183.434 208.092C182.725 208.316 182.062 208.577 181.446 208.876L180.69 207.028C181.343 206.673 182.118 206.375 183.014 206.132C183.91 205.871 184.843 205.74 185.814 205.74ZM186.542 213.748C184.675 213.823 183.378 214.121 182.65 214.644C181.941 215.167 181.586 215.904 181.586 216.856C181.586 217.696 181.838 218.312 182.342 218.704C182.865 219.096 183.527 219.292 184.33 219.292C185.599 219.292 186.654 218.947 187.494 218.256C188.334 217.547 188.754 216.464 188.754 215.008V213.664L186.542 213.748ZM204.645 221.28C203.32 221.28 202.135 221.009 201.089 220.468C200.063 219.927 199.251 219.087 198.653 217.948C198.075 216.809 197.785 215.353 197.785 213.58C197.785 211.732 198.093 210.229 198.709 209.072C199.325 207.915 200.156 207.065 201.201 206.524C202.265 205.983 203.469 205.712 204.813 205.712C205.579 205.712 206.316 205.796 207.025 205.964C207.735 206.113 208.313 206.3 208.761 206.524L208.005 208.568C207.557 208.4 207.035 208.241 206.437 208.092C205.84 207.943 205.28 207.868 204.757 207.868C203.749 207.868 202.919 208.083 202.265 208.512C201.612 208.941 201.127 209.576 200.809 210.416C200.492 211.256 200.333 212.301 200.333 213.552C200.333 214.747 200.492 215.764 200.809 216.604C201.127 217.444 201.603 218.079 202.237 218.508C202.872 218.937 203.665 219.152 204.617 219.152C205.439 219.152 206.157 219.068 206.773 218.9C207.408 218.732 207.987 218.527 208.509 218.284V220.468C208.005 220.729 207.445 220.925 206.829 221.056C206.232 221.205 205.504 221.28 204.645 221.28ZM217.342 205.964C217.342 206.319 217.324 206.683 217.286 207.056C217.268 207.429 217.24 207.765 217.202 208.064H217.37C217.688 207.541 218.089 207.112 218.574 206.776C219.06 206.44 219.601 206.188 220.198 206.02C220.796 205.833 221.412 205.74 222.046 205.74C223.26 205.74 224.268 205.936 225.07 206.328C225.892 206.701 226.508 207.289 226.918 208.092C227.329 208.895 227.534 209.94 227.534 211.228V221H225.098V211.396C225.098 210.183 224.828 209.277 224.286 208.68C223.745 208.083 222.896 207.784 221.738 207.784C220.618 207.784 219.741 207.999 219.106 208.428C218.472 208.839 218.014 209.455 217.734 210.276C217.473 211.079 217.342 212.068 217.342 213.244V221H214.878V199.72H217.342V205.964ZM239.999 219.264C240.372 219.264 240.755 219.236 241.147 219.18C241.539 219.105 241.856 219.031 242.099 218.956V220.832C241.838 220.963 241.464 221.065 240.979 221.14C240.494 221.233 240.027 221.28 239.579 221.28C238.795 221.28 238.067 221.149 237.395 220.888C236.742 220.608 236.21 220.132 235.799 219.46C235.388 218.788 235.183 217.845 235.183 216.632V207.896H233.055V206.72L235.211 205.74L236.191 202.548H237.647V205.992H241.987V207.896H237.647V216.576C237.647 217.491 237.862 218.172 238.291 218.62C238.739 219.049 239.308 219.264 239.999 219.264ZM101.903 243.712C103.601 243.712 104.871 244.151 105.711 245.028C106.551 245.887 106.971 247.287 106.971 249.228V259H104.535V249.34C104.535 248.164 104.283 247.277 103.779 246.68C103.293 246.083 102.528 245.784 101.483 245.784C100.027 245.784 98.9813 246.204 98.3466 247.044C97.7306 247.884 97.4226 249.107 97.4226 250.712V259H94.9866V249.34C94.9866 248.556 94.8746 247.903 94.6506 247.38C94.4266 246.839 94.0906 246.437 93.6426 246.176C93.1946 245.915 92.6159 245.784 91.9066 245.784C90.8986 245.784 90.1053 245.999 89.5266 246.428C88.9479 246.839 88.5279 247.445 88.2666 248.248C88.0239 249.051 87.9026 250.04 87.9026 251.216V259H85.4386V243.992H87.4266L87.7906 246.036H87.9306C88.2479 245.513 88.6306 245.084 89.0786 244.748C89.5453 244.393 90.0586 244.132 90.6186 243.964C91.1786 243.796 91.7573 243.712 92.3546 243.712C93.5119 243.712 94.4733 243.917 95.2386 244.328C96.0226 244.739 96.5919 245.373 96.9466 246.232H97.0866C97.5906 245.373 98.2719 244.739 99.1306 244.328C100.008 243.917 100.932 243.712 101.903 243.712ZM120.091 243.74C121.92 243.74 123.273 244.141 124.151 244.944C125.028 245.747 125.467 247.025 125.467 248.78V259H123.675L123.199 256.872H123.087C122.657 257.413 122.209 257.871 121.743 258.244C121.295 258.599 120.772 258.86 120.175 259.028C119.596 259.196 118.887 259.28 118.047 259.28C117.151 259.28 116.339 259.121 115.611 258.804C114.901 258.487 114.341 258.001 113.931 257.348C113.52 256.676 113.315 255.836 113.315 254.828C113.315 253.335 113.903 252.187 115.079 251.384C116.255 250.563 118.065 250.115 120.511 250.04L123.059 249.956V249.06C123.059 247.809 122.788 246.941 122.247 246.456C121.705 245.971 120.94 245.728 119.951 245.728C119.167 245.728 118.42 245.849 117.711 246.092C117.001 246.316 116.339 246.577 115.723 246.876L114.967 245.028C115.62 244.673 116.395 244.375 117.291 244.132C118.187 243.871 119.12 243.74 120.091 243.74ZM120.819 251.748C118.952 251.823 117.655 252.121 116.927 252.644C116.217 253.167 115.863 253.904 115.863 254.856C115.863 255.696 116.115 256.312 116.619 256.704C117.141 257.096 117.804 257.292 118.607 257.292C119.876 257.292 120.931 256.947 121.771 256.256C122.611 255.547 123.031 254.464 123.031 253.008V251.664L120.819 251.748ZM135.366 243.992V259H132.902V243.992H135.366ZM134.162 238.364C134.535 238.364 134.862 238.495 135.142 238.756C135.441 238.999 135.59 239.391 135.59 239.932C135.59 240.455 135.441 240.847 135.142 241.108C134.862 241.369 134.535 241.5 134.162 241.5C133.751 241.5 133.406 241.369 133.126 241.108C132.846 240.847 132.706 240.455 132.706 239.932C132.706 239.391 132.846 238.999 133.126 238.756C133.406 238.495 133.751 238.364 134.162 238.364ZM150.145 243.712C151.937 243.712 153.29 244.151 154.205 245.028C155.119 245.887 155.577 247.287 155.577 249.228V259H153.141V249.396C153.141 248.183 152.87 247.277 152.329 246.68C151.787 246.083 150.938 245.784 149.781 245.784C148.119 245.784 146.971 246.251 146.337 247.184C145.702 248.117 145.385 249.461 145.385 251.216V259H142.921V243.992H144.909L145.273 246.036H145.413C145.749 245.513 146.159 245.084 146.645 244.748C147.149 244.393 147.699 244.132 148.297 243.964C148.894 243.796 149.51 243.712 150.145 243.712ZM168.041 257.264C168.415 257.264 168.797 257.236 169.189 257.18C169.581 257.105 169.899 257.031 170.141 256.956V258.832C169.88 258.963 169.507 259.065 169.021 259.14C168.536 259.233 168.069 259.28 167.621 259.28C166.837 259.28 166.109 259.149 165.437 258.888C164.784 258.608 164.252 258.132 163.841 257.46C163.431 256.788 163.225 255.845 163.225 254.632V245.896H161.097V244.72L163.253 243.74L164.233 240.548H165.689V243.992H170.029V245.896H165.689V254.576C165.689 255.491 165.904 256.172 166.333 256.62C166.781 257.049 167.351 257.264 168.041 257.264ZM181.742 243.712C183.03 243.712 184.132 243.992 185.046 244.552C185.98 245.112 186.689 245.905 187.174 246.932C187.678 247.94 187.93 249.125 187.93 250.488V251.972H177.654C177.692 253.671 178.121 254.968 178.942 255.864C179.782 256.741 180.949 257.18 182.442 257.18C183.394 257.18 184.234 257.096 184.962 256.928C185.709 256.741 186.474 256.48 187.258 256.144V258.3C186.493 258.636 185.737 258.879 184.99 259.028C184.244 259.196 183.357 259.28 182.33 259.28C180.912 259.28 179.652 258.991 178.55 258.412C177.468 257.833 176.618 256.975 176.002 255.836C175.405 254.679 175.106 253.269 175.106 251.608C175.106 249.965 175.377 248.556 175.918 247.38C176.478 246.204 177.253 245.299 178.242 244.664C179.25 244.029 180.417 243.712 181.742 243.712ZM181.714 245.728C180.538 245.728 179.605 246.111 178.914 246.876C178.242 247.623 177.841 248.668 177.71 250.012H185.354C185.354 249.153 185.224 248.407 184.962 247.772C184.701 247.137 184.3 246.643 183.758 246.288C183.236 245.915 182.554 245.728 181.714 245.728ZM201.775 243.712C203.567 243.712 204.92 244.151 205.835 245.028C206.75 245.887 207.207 247.287 207.207 249.228V259H204.771V249.396C204.771 248.183 204.5 247.277 203.959 246.68C203.418 246.083 202.568 245.784 201.411 245.784C199.75 245.784 198.602 246.251 197.967 247.184C197.332 248.117 197.015 249.461 197.015 251.216V259H194.551V243.992H196.539L196.903 246.036H197.043C197.379 245.513 197.79 245.084 198.275 244.748C198.779 244.393 199.33 244.132 199.927 243.964C200.524 243.796 201.14 243.712 201.775 243.712ZM220.344 243.74C222.173 243.74 223.526 244.141 224.404 244.944C225.281 245.747 225.72 247.025 225.72 248.78V259H223.928L223.452 256.872H223.34C222.91 257.413 222.462 257.871 221.996 258.244C221.548 258.599 221.025 258.86 220.428 259.028C219.849 259.196 219.14 259.28 218.3 259.28C217.404 259.28 216.592 259.121 215.864 258.804C215.154 258.487 214.594 258.001 214.184 257.348C213.773 256.676 213.568 255.836 213.568 254.828C213.568 253.335 214.156 252.187 215.332 251.384C216.508 250.563 218.318 250.115 220.764 250.04L223.312 249.956V249.06C223.312 247.809 223.041 246.941 222.5 246.456C221.958 245.971 221.193 245.728 220.204 245.728C219.42 245.728 218.673 245.849 217.964 246.092C217.254 246.316 216.592 246.577 215.976 246.876L215.22 245.028C215.873 244.673 216.648 244.375 217.544 244.132C218.44 243.871 219.373 243.74 220.344 243.74ZM221.072 251.748C219.205 251.823 217.908 252.121 217.18 252.644C216.47 253.167 216.116 253.904 216.116 254.856C216.116 255.696 216.368 256.312 216.872 256.704C217.394 257.096 218.057 257.292 218.86 257.292C220.129 257.292 221.184 256.947 222.024 256.256C222.864 255.547 223.284 254.464 223.284 253.008V251.664L221.072 251.748ZM240.379 243.712C242.171 243.712 243.524 244.151 244.439 245.028C245.354 245.887 245.811 247.287 245.811 249.228V259H243.375V249.396C243.375 248.183 243.104 247.277 242.563 246.68C242.022 246.083 241.172 245.784 240.015 245.784C238.354 245.784 237.206 246.251 236.571 247.184C235.936 248.117 235.619 249.461 235.619 251.216V259H233.155V243.992H235.143L235.507 246.036H235.647C235.983 245.513 236.394 245.084 236.879 244.748C237.383 244.393 237.934 244.132 238.531 243.964C239.128 243.796 239.744 243.712 240.379 243.712ZM259.284 259.28C257.958 259.28 256.773 259.009 255.728 258.468C254.701 257.927 253.889 257.087 253.292 255.948C252.713 254.809 252.424 253.353 252.424 251.58C252.424 249.732 252.732 248.229 253.348 247.072C253.964 245.915 254.794 245.065 255.84 244.524C256.904 243.983 258.108 243.712 259.452 243.712C260.217 243.712 260.954 243.796 261.664 243.964C262.373 244.113 262.952 244.3 263.4 244.524L262.644 246.568C262.196 246.4 261.673 246.241 261.076 246.092C260.478 245.943 259.918 245.868 259.396 245.868C258.388 245.868 257.557 246.083 256.904 246.512C256.25 246.941 255.765 247.576 255.448 248.416C255.13 249.256 254.972 250.301 254.972 251.552C254.972 252.747 255.13 253.764 255.448 254.604C255.765 255.444 256.241 256.079 256.876 256.508C257.51 256.937 258.304 257.152 259.256 257.152C260.077 257.152 260.796 257.068 261.412 256.9C262.046 256.732 262.625 256.527 263.148 256.284V258.468C262.644 258.729 262.084 258.925 261.468 259.056C260.87 259.205 260.142 259.28 259.284 259.28ZM275.313 243.712C276.601 243.712 277.702 243.992 278.617 244.552C279.55 245.112 280.259 245.905 280.745 246.932C281.249 247.94 281.501 249.125 281.501 250.488V251.972H271.225C271.262 253.671 271.691 254.968 272.513 255.864C273.353 256.741 274.519 257.18 276.013 257.18C276.965 257.18 277.805 257.096 278.533 256.928C279.279 256.741 280.045 256.48 280.829 256.144V258.3C280.063 258.636 279.307 258.879 278.561 259.028C277.814 259.196 276.927 259.28 275.901 259.28C274.482 259.28 273.222 258.991 272.121 258.412C271.038 257.833 270.189 256.975 269.573 255.836C268.975 254.679 268.677 253.269 268.677 251.608C268.677 249.965 268.947 248.556 269.489 247.38C270.049 246.204 270.823 245.299 271.813 244.664C272.821 244.029 273.987 243.712 275.313 243.712ZM275.285 245.728C274.109 245.728 273.175 246.111 272.485 246.876C271.813 247.623 271.411 248.668 271.281 250.012H278.925C278.925 249.153 278.794 248.407 278.533 247.772C278.271 247.137 277.87 246.643 277.329 246.288C276.806 245.915 276.125 245.728 275.285 245.728Z" fill="white"/>
<defs>
<filter id="filter0_b_301_24" x="-20" y="-20" width="406" height="406" filterUnits="userSpaceOnUse" color-interpolation-filters="sRGB">
<feFlood flood-opacity="0" result="BackgroundImageFix"/>
<feGaussianBlur in="BackgroundImage" stdDeviation="10"/>
<feComposite in2="SourceAlpha" operator="in" result="effect1_backgroundBlur_301_24"/>
<feBlend mode="normal" in="SourceGraphic" in2="effect1_backgroundBlur_301_24" result="shape"/>
</filter>
</defs>
</svg>
