<svg width="366" height="366" viewBox="0 0 366 366" fill="none" xmlns="http://www.w3.org/2000/svg">
<g filter="url(#filter0_b_301_23)">
<circle cx="183" cy="183" r="183" fill="#EBE8EF"/>
</g>
<path d="M129.703 115.84L136.855 101.728H144.679L133.303 122.656V136H126.103V122.896L114.727 101.728H122.599L129.703 115.84ZM156.785 109.264C160.305 109.264 162.993 110.032 164.849 111.568C166.737 113.072 167.681 115.392 167.681 118.528V136H162.689L161.297 132.448H161.105C160.369 133.376 159.601 134.144 158.801 134.752C158.033 135.36 157.137 135.792 156.113 136.048C155.121 136.336 153.889 136.48 152.417 136.48C150.881 136.48 149.489 136.192 148.241 135.616C147.025 135.008 146.065 134.096 145.361 132.88C144.657 131.632 144.305 130.064 144.305 128.176C144.305 125.392 145.281 123.344 147.233 122.032C149.185 120.688 152.113 119.952 156.017 119.824L160.577 119.68V118.528C160.577 117.152 160.209 116.144 159.473 115.504C158.769 114.864 157.777 114.544 156.497 114.544C155.217 114.544 153.969 114.736 152.753 115.12C151.537 115.472 150.321 115.92 149.105 116.464L146.753 111.616C148.161 110.88 149.713 110.304 151.409 109.888C153.137 109.472 154.929 109.264 156.785 109.264ZM157.793 123.952C155.489 124.016 153.889 124.432 152.993 125.2C152.097 125.968 151.649 126.976 151.649 128.224C151.649 129.312 151.969 130.096 152.609 130.576C153.249 131.024 154.081 131.248 155.105 131.248C156.641 131.248 157.937 130.8 158.993 129.904C160.049 128.976 160.577 127.68 160.577 126.016V123.856L157.793 123.952ZM185.658 136.48C183.066 136.48 180.858 136.016 179.034 135.088C177.21 134.128 175.818 132.656 174.858 130.672C173.898 128.688 173.418 126.144 173.418 123.04C173.418 119.84 173.962 117.232 175.05 115.216C176.138 113.2 177.642 111.712 179.562 110.752C181.514 109.792 183.754 109.312 186.282 109.312C188.074 109.312 189.626 109.488 190.938 109.84C192.282 110.192 193.45 110.608 194.442 111.088L192.33 116.608C191.21 116.16 190.154 115.792 189.162 115.504C188.202 115.216 187.242 115.072 186.282 115.072C185.034 115.072 183.994 115.376 183.162 115.984C182.33 116.56 181.706 117.44 181.29 118.624C180.906 119.776 180.714 121.232 180.714 122.992C180.714 124.72 180.922 126.16 181.338 127.312C181.786 128.432 182.426 129.28 183.258 129.856C184.09 130.4 185.098 130.672 186.282 130.672C187.786 130.672 189.114 130.48 190.266 130.096C191.418 129.68 192.538 129.12 193.626 128.416V134.512C192.538 135.216 191.386 135.712 190.17 136C188.986 136.32 187.482 136.48 185.658 136.48ZM206.81 106.96C206.81 108.24 206.762 109.472 206.666 110.656C206.602 111.84 206.538 112.672 206.474 113.152H206.858C207.434 112.256 208.106 111.536 208.874 110.992C209.642 110.416 210.49 110 211.418 109.744C212.378 109.456 213.386 109.312 214.442 109.312C216.33 109.312 217.978 109.648 219.386 110.32C220.794 110.992 221.882 112.032 222.65 113.44C223.45 114.848 223.85 116.672 223.85 118.912V136H216.698V120.688C216.698 118.8 216.346 117.392 215.642 116.464C214.97 115.504 213.914 115.024 212.474 115.024C211.034 115.024 209.898 115.36 209.066 116.032C208.266 116.704 207.69 117.68 207.338 118.96C206.986 120.24 206.81 121.808 206.81 123.664V136H199.658V99.52H206.81V106.96ZM242.245 130.768C243.045 130.768 243.813 130.688 244.549 130.528C245.285 130.368 246.021 130.176 246.757 129.952V135.28C245.989 135.6 245.029 135.872 243.877 136.096C242.757 136.352 241.525 136.48 240.181 136.48C238.613 136.48 237.205 136.224 235.957 135.712C234.741 135.2 233.765 134.32 233.029 133.072C232.325 131.792 231.973 130.032 231.973 127.792V115.168H228.565V112.144L232.501 109.744L234.565 104.224H239.125V109.792H246.469V115.168H239.125V127.792C239.125 128.784 239.413 129.536 239.989 130.048C240.565 130.528 241.317 130.768 242.245 130.768ZM42.9801 201L34.7241 174.12H34.5321C34.5641 174.76 34.6121 175.72 34.6761 177C34.7401 178.28 34.8041 179.656 34.8681 181.128C34.9321 182.568 34.9641 183.88 34.9641 185.064V201H28.4841V166.728H38.3721L46.4841 192.936H46.6281L55.2201 166.728H65.1081V201H58.3401V184.776C58.3401 183.688 58.3561 182.44 58.3881 181.032C58.4521 179.624 58.5001 178.296 58.5321 177.048C58.5961 175.768 58.6441 174.808 58.6761 174.168H58.4841L49.6521 201H42.9801ZM83.9413 174.264C87.4613 174.264 90.1493 175.032 92.0053 176.568C93.8933 178.072 94.8373 180.392 94.8373 183.528V201H89.8453L88.4533 197.448H88.2613C87.5253 198.376 86.7573 199.144 85.9573 199.752C85.1893 200.36 84.2933 200.792 83.2693 201.048C82.2773 201.336 81.0453 201.48 79.5733 201.48C78.0373 201.48 76.6453 201.192 75.3973 200.616C74.1813 200.008 73.2213 199.096 72.5173 197.88C71.8133 196.632 71.4613 195.064 71.4613 193.176C71.4613 190.392 72.4373 188.344 74.3893 187.032C76.3413 185.688 79.2693 184.952 83.1733 184.824L87.7333 184.68V183.528C87.7333 182.152 87.3653 181.144 86.6293 180.504C85.9253 179.864 84.9333 179.544 83.6533 179.544C82.3733 179.544 81.1253 179.736 79.9093 180.12C78.6933 180.472 77.4773 180.92 76.2613 181.464L73.9093 176.616C75.3173 175.88 76.8693 175.304 78.5653 174.888C80.2933 174.472 82.0853 174.264 83.9413 174.264ZM84.9493 188.952C82.6453 189.016 81.0453 189.432 80.1493 190.2C79.2533 190.968 78.8053 191.976 78.8053 193.224C78.8053 194.312 79.1253 195.096 79.7653 195.576C80.4053 196.024 81.2373 196.248 82.2613 196.248C83.7973 196.248 85.0933 195.8 86.1493 194.904C87.2053 193.976 87.7333 192.68 87.7333 191.016V188.856L84.9493 188.952ZM109.31 174.792V201H102.158V174.792H109.31ZM105.758 164.52C106.814 164.52 107.726 164.776 108.494 165.288C109.262 165.768 109.646 166.68 109.646 168.024C109.646 169.336 109.262 170.248 108.494 170.76C107.726 171.272 106.814 171.528 105.758 171.528C104.67 171.528 103.742 171.272 102.974 170.76C102.238 170.248 101.87 169.336 101.87 168.024C101.87 166.68 102.238 165.768 102.974 165.288C103.742 164.776 104.67 164.52 105.758 164.52ZM131.663 174.312C134.479 174.312 136.735 175.08 138.431 176.616C140.127 178.12 140.975 180.552 140.975 183.912V201H133.823V185.688C133.823 183.8 133.487 182.392 132.815 181.464C132.143 180.504 131.071 180.024 129.599 180.024C127.423 180.024 125.935 180.776 125.135 182.28C124.335 183.752 123.935 185.88 123.935 188.664V201H116.783V174.792H122.255L123.215 178.152H123.599C124.175 177.256 124.879 176.536 125.711 175.992C126.543 175.416 127.471 175 128.495 174.744C129.519 174.456 130.575 174.312 131.663 174.312ZM159.37 195.768C160.17 195.768 160.938 195.688 161.674 195.528C162.41 195.368 163.146 195.176 163.882 194.952V200.28C163.114 200.6 162.154 200.872 161.002 201.096C159.882 201.352 158.65 201.48 157.306 201.48C155.738 201.48 154.33 201.224 153.082 200.712C151.866 200.2 150.89 199.32 150.154 198.072C149.45 196.792 149.098 195.032 149.098 192.792V180.168H145.69V177.144L149.626 174.744L151.69 169.224H156.25V174.792H163.594V180.168H156.25V192.792C156.25 193.784 156.538 194.536 157.114 195.048C157.69 195.528 158.442 195.768 159.37 195.768ZM179.942 174.312C182.374 174.312 184.454 174.776 186.182 175.704C187.942 176.632 189.302 177.976 190.262 179.736C191.222 181.496 191.702 183.656 191.702 186.216V189.672H174.806C174.87 191.688 175.462 193.272 176.582 194.424C177.734 195.576 179.318 196.152 181.334 196.152C183.03 196.152 184.566 195.992 185.942 195.672C187.318 195.32 188.742 194.792 190.214 194.088V199.608C188.934 200.248 187.574 200.712 186.134 201C184.726 201.32 183.014 201.48 180.998 201.48C178.374 201.48 176.054 201 174.038 200.04C172.022 199.048 170.438 197.56 169.286 195.576C168.134 193.592 167.558 191.096 167.558 188.088C167.558 185.016 168.07 182.472 169.094 180.456C170.15 178.408 171.606 176.872 173.462 175.848C175.318 174.824 177.478 174.312 179.942 174.312ZM179.99 179.4C178.614 179.4 177.462 179.848 176.534 180.744C175.638 181.64 175.11 183.032 174.95 184.92H184.982C184.982 183.864 184.79 182.92 184.406 182.088C184.054 181.256 183.51 180.6 182.774 180.12C182.038 179.64 181.11 179.4 179.99 179.4ZM212.382 174.312C215.198 174.312 217.454 175.08 219.15 176.616C220.846 178.12 221.694 180.552 221.694 183.912V201H214.542V185.688C214.542 183.8 214.206 182.392 213.534 181.464C212.862 180.504 211.79 180.024 210.318 180.024C208.142 180.024 206.654 180.776 205.854 182.28C205.054 183.752 204.654 185.88 204.654 188.664V201H197.502V174.792H202.974L203.934 178.152H204.318C204.894 177.256 205.598 176.536 206.43 175.992C207.262 175.416 208.19 175 209.214 174.744C210.238 174.456 211.294 174.312 212.382 174.312ZM239.801 174.264C243.321 174.264 246.009 175.032 247.865 176.568C249.753 178.072 250.697 180.392 250.697 183.528V201H245.705L244.313 197.448H244.121C243.385 198.376 242.617 199.144 241.817 199.752C241.049 200.36 240.153 200.792 239.129 201.048C238.137 201.336 236.905 201.48 235.433 201.48C233.897 201.48 232.505 201.192 231.257 200.616C230.041 200.008 229.081 199.096 228.377 197.88C227.673 196.632 227.321 195.064 227.321 193.176C227.321 190.392 228.297 188.344 230.249 187.032C232.201 185.688 235.129 184.952 239.033 184.824L243.593 184.68V183.528C243.593 182.152 243.225 181.144 242.489 180.504C241.785 179.864 240.793 179.544 239.513 179.544C238.233 179.544 236.985 179.736 235.769 180.12C234.553 180.472 233.337 180.92 232.121 181.464L229.769 176.616C231.177 175.88 232.729 175.304 234.425 174.888C236.153 174.472 237.945 174.264 239.801 174.264ZM240.809 188.952C238.505 189.016 236.905 189.432 236.009 190.2C235.113 190.968 234.665 191.976 234.665 193.224C234.665 194.312 234.985 195.096 235.625 195.576C236.265 196.024 237.097 196.248 238.121 196.248C239.657 196.248 240.953 195.8 242.009 194.904C243.065 193.976 243.593 192.68 243.593 191.016V188.856L240.809 188.952ZM272.897 174.312C275.713 174.312 277.969 175.08 279.665 176.616C281.361 178.12 282.209 180.552 282.209 183.912V201H275.057V185.688C275.057 183.8 274.721 182.392 274.049 181.464C273.377 180.504 272.305 180.024 270.833 180.024C268.657 180.024 267.169 180.776 266.369 182.28C265.569 183.752 265.169 185.88 265.169 188.664V201H258.017V174.792H263.489L264.449 178.152H264.833C265.409 177.256 266.113 176.536 266.945 175.992C267.777 175.416 268.705 175 269.729 174.744C270.753 174.456 271.809 174.312 272.897 174.312ZM300.22 201.48C297.628 201.48 295.42 201.016 293.596 200.088C291.772 199.128 290.38 197.656 289.42 195.672C288.46 193.688 287.98 191.144 287.98 188.04C287.98 184.84 288.524 182.232 289.612 180.216C290.7 178.2 292.204 176.712 294.124 175.752C296.076 174.792 298.316 174.312 300.844 174.312C302.636 174.312 304.188 174.488 305.5 174.84C306.844 175.192 308.012 175.608 309.004 176.088L306.892 181.608C305.772 181.16 304.716 180.792 303.724 180.504C302.764 180.216 301.804 180.072 300.844 180.072C299.596 180.072 298.556 180.376 297.724 180.984C296.892 181.56 296.268 182.44 295.852 183.624C295.468 184.776 295.276 186.232 295.276 187.992C295.276 189.72 295.484 191.16 295.9 192.312C296.348 193.432 296.988 194.28 297.82 194.856C298.652 195.4 299.66 195.672 300.844 195.672C302.348 195.672 303.676 195.48 304.828 195.096C305.98 194.68 307.1 194.12 308.188 193.416V199.512C307.1 200.216 305.948 200.712 304.732 201C303.548 201.32 302.044 201.48 300.22 201.48ZM325.021 174.312C327.453 174.312 329.533 174.776 331.261 175.704C333.021 176.632 334.381 177.976 335.341 179.736C336.301 181.496 336.781 183.656 336.781 186.216V189.672H319.885C319.949 191.688 320.541 193.272 321.661 194.424C322.813 195.576 324.397 196.152 326.413 196.152C328.109 196.152 329.645 195.992 331.021 195.672C332.397 195.32 333.821 194.792 335.293 194.088V199.608C334.013 200.248 332.653 200.712 331.213 201C329.805 201.32 328.093 201.48 326.077 201.48C323.453 201.48 321.133 201 319.117 200.04C317.101 199.048 315.517 197.56 314.365 195.576C313.213 193.592 312.637 191.096 312.637 188.088C312.637 185.016 313.149 182.472 314.173 180.456C315.229 178.408 316.685 176.872 318.541 175.848C320.397 174.824 322.557 174.312 325.021 174.312ZM325.069 179.4C323.693 179.4 322.541 179.848 321.613 180.744C320.717 181.64 320.189 183.032 320.029 184.92H330.061C330.061 183.864 329.869 182.92 329.485 182.088C329.133 181.256 328.589 180.6 327.853 180.12C327.117 179.64 326.189 179.4 325.069 179.4ZM120.247 256.496C120.247 258.512 119.751 260.272 118.759 261.776C117.767 263.28 116.327 264.448 114.439 265.28C112.583 266.08 110.311 266.48 107.623 266.48C106.439 266.48 105.271 266.4 104.119 266.24C102.999 266.08 101.911 265.856 100.855 265.568C99.8308 265.248 98.8548 264.864 97.9268 264.416V257.648C99.5588 258.352 101.239 259.008 102.967 259.616C104.727 260.192 106.471 260.48 108.199 260.48C109.383 260.48 110.327 260.32 111.031 260C111.767 259.68 112.295 259.248 112.615 258.704C112.967 258.16 113.143 257.536 113.143 256.832C113.143 255.968 112.839 255.232 112.231 254.624C111.655 254.016 110.871 253.456 109.879 252.944C108.887 252.4 107.751 251.824 106.471 251.216C105.671 250.832 104.807 250.384 103.879 249.872C102.951 249.328 102.055 248.672 101.191 247.904C100.359 247.104 99.6708 246.144 99.1268 245.024C98.5828 243.904 98.3108 242.56 98.3108 240.992C98.3108 238.944 98.7748 237.2 99.7028 235.76C100.663 234.288 102.007 233.168 103.735 232.4C105.495 231.632 107.559 231.248 109.927 231.248C111.719 231.248 113.415 231.456 115.015 231.872C116.647 232.288 118.343 232.88 120.103 233.648L117.751 239.312C116.183 238.672 114.775 238.176 113.527 237.824C112.279 237.472 110.999 237.296 109.687 237.296C108.791 237.296 108.023 237.44 107.383 237.728C106.743 238.016 106.247 238.416 105.895 238.928C105.575 239.44 105.415 240.048 105.415 240.752C105.415 241.552 105.655 242.24 106.135 242.816C106.615 243.36 107.335 243.888 108.295 244.4C109.255 244.912 110.455 245.52 111.895 246.224C113.655 247.056 115.143 247.92 116.359 248.816C117.607 249.712 118.567 250.768 119.239 251.984C119.911 253.2 120.247 254.704 120.247 256.496ZM136.7 239.312C139.132 239.312 141.212 239.776 142.94 240.704C144.7 241.632 146.06 242.976 147.02 244.736C147.98 246.496 148.46 248.656 148.46 251.216V254.672H131.564C131.628 256.688 132.22 258.272 133.34 259.424C134.492 260.576 136.076 261.152 138.092 261.152C139.788 261.152 141.324 260.992 142.7 260.672C144.076 260.32 145.5 259.792 146.972 259.088V264.608C145.692 265.248 144.332 265.712 142.892 266C141.484 266.32 139.772 266.48 137.756 266.48C135.132 266.48 132.812 266 130.796 265.04C128.78 264.048 127.196 262.56 126.044 260.576C124.892 258.592 124.316 256.096 124.316 253.088C124.316 250.016 124.828 247.472 125.852 245.456C126.908 243.408 128.364 241.872 130.22 240.848C132.076 239.824 134.236 239.312 136.7 239.312ZM136.748 244.4C135.372 244.4 134.22 244.848 133.292 245.744C132.396 246.64 131.868 248.032 131.708 249.92H141.74C141.74 248.864 141.548 247.92 141.164 247.088C140.812 246.256 140.268 245.6 139.532 245.12C138.796 244.64 137.868 244.4 136.748 244.4ZM168.9 239.312C169.252 239.312 169.668 239.328 170.148 239.36C170.628 239.392 171.012 239.44 171.3 239.504L170.772 246.224C170.548 246.16 170.212 246.112 169.764 246.08C169.348 246.016 168.98 245.984 168.66 245.984C167.732 245.984 166.836 246.112 165.972 246.368C165.108 246.592 164.324 246.96 163.62 247.472C162.948 247.984 162.404 248.672 161.988 249.536C161.604 250.368 161.412 251.408 161.412 252.656V266H154.26V239.792H159.684L160.74 244.208H161.076C161.588 243.312 162.228 242.496 162.996 241.76C163.764 241.024 164.644 240.432 165.636 239.984C166.66 239.536 167.748 239.312 168.9 239.312ZM182.297 266L172.312 239.792H179.801L184.841 254.72C185.033 255.296 185.193 255.904 185.321 256.544C185.481 257.184 185.593 257.808 185.657 258.416C185.753 259.024 185.817 259.584 185.849 260.096H186.041C186.073 259.552 186.137 258.976 186.233 258.368C186.329 257.76 186.441 257.152 186.569 256.544C186.729 255.904 186.905 255.296 187.097 254.72L192.137 239.792H199.625L189.641 266H182.297ZM210.537 239.792V266H203.385V239.792H210.537ZM206.985 229.52C208.041 229.52 208.953 229.776 209.721 230.288C210.489 230.768 210.873 231.68 210.873 233.024C210.873 234.336 210.489 235.248 209.721 235.76C208.953 236.272 208.041 236.528 206.985 236.528C205.897 236.528 204.969 236.272 204.201 235.76C203.465 235.248 203.097 234.336 203.097 233.024C203.097 231.68 203.465 230.768 204.201 230.288C204.969 229.776 205.897 229.52 206.985 229.52ZM228.666 266.48C226.074 266.48 223.866 266.016 222.042 265.088C220.218 264.128 218.826 262.656 217.866 260.672C216.906 258.688 216.426 256.144 216.426 253.04C216.426 249.84 216.97 247.232 218.058 245.216C219.146 243.2 220.65 241.712 222.57 240.752C224.522 239.792 226.762 239.312 229.29 239.312C231.082 239.312 232.634 239.488 233.946 239.84C235.29 240.192 236.458 240.608 237.45 241.088L235.338 246.608C234.218 246.16 233.162 245.792 232.17 245.504C231.21 245.216 230.25 245.072 229.29 245.072C228.042 245.072 227.002 245.376 226.17 245.984C225.338 246.56 224.714 247.44 224.298 248.624C223.914 249.776 223.722 251.232 223.722 252.992C223.722 254.72 223.93 256.16 224.346 257.312C224.794 258.432 225.434 259.28 226.266 259.856C227.098 260.4 228.106 260.672 229.29 260.672C230.794 260.672 232.122 260.48 233.274 260.096C234.426 259.68 235.546 259.12 236.634 258.416V264.512C235.546 265.216 234.394 265.712 233.178 266C231.994 266.32 230.49 266.48 228.666 266.48ZM253.466 239.312C255.898 239.312 257.978 239.776 259.706 240.704C261.466 241.632 262.826 242.976 263.786 244.736C264.746 246.496 265.226 248.656 265.226 251.216V254.672H248.33C248.394 256.688 248.986 258.272 250.106 259.424C251.258 260.576 252.842 261.152 254.858 261.152C256.554 261.152 258.09 260.992 259.466 260.672C260.842 260.32 262.266 259.792 263.738 259.088V264.608C262.458 265.248 261.098 265.712 259.658 266C258.25 266.32 256.538 266.48 254.522 266.48C251.898 266.48 249.578 266 247.562 265.04C245.546 264.048 243.962 262.56 242.81 260.576C241.658 258.592 241.082 256.096 241.082 253.088C241.082 250.016 241.594 247.472 242.618 245.456C243.674 243.408 245.13 241.872 246.986 240.848C248.842 239.824 251.002 239.312 253.466 239.312ZM253.514 244.4C252.138 244.4 250.986 244.848 250.058 245.744C249.162 246.64 248.634 248.032 248.474 249.92H258.506C258.506 248.864 258.314 247.92 257.93 247.088C257.578 246.256 257.034 245.6 256.298 245.12C255.562 244.64 254.634 244.4 253.514 244.4Z" fill="#176782"/>
<defs>
<filter id="filter0_b_301_23" x="-20" y="-20" width="406" height="406" filterUnits="userSpaceOnUse" color-interpolation-filters="sRGB">
<feFlood flood-opacity="0" result="BackgroundImageFix"/>
<feGaussianBlur in="BackgroundImage" stdDeviation="10"/>
<feComposite in2="SourceAlpha" operator="in" result="effect1_backgroundBlur_301_23"/>
<feBlend mode="normal" in="SourceGraphic" in2="effect1_backgroundBlur_301_23" result="shape"/>
</filter>
</defs>
</svg>
