<svg width="366" height="366" viewBox="0 0 366 366" fill="none" xmlns="http://www.w3.org/2000/svg">
<g filter="url(#filter0_b_499_51)">
<circle cx="183" cy="183" r="183" fill="#176782"/>
</g>
<path d="M84.6661 138L78.0861 120.472H77.9741C78.0114 120.845 78.0394 121.321 78.0581 121.9C78.0954 122.479 78.1234 123.113 78.1421 123.804C78.1607 124.476 78.1701 125.167 78.1701 125.876V138H75.8461V118.008H79.5701L85.7301 134.388H85.8421L92.1141 118.008H95.8101V138H93.3181V125.708C93.3181 125.055 93.3274 124.411 93.3461 123.776C93.3647 123.123 93.3927 122.516 93.4301 121.956C93.4674 121.377 93.4954 120.892 93.5141 120.5H93.4021L86.7381 138H84.6661ZM109.396 122.74C111.226 122.74 112.579 123.141 113.456 123.944C114.334 124.747 114.772 126.025 114.772 127.78V138H112.98L112.504 135.872H112.392C111.963 136.413 111.515 136.871 111.048 137.244C110.6 137.599 110.078 137.86 109.48 138.028C108.902 138.196 108.192 138.28 107.352 138.28C106.456 138.28 105.644 138.121 104.916 137.804C104.207 137.487 103.647 137.001 103.236 136.348C102.826 135.676 102.62 134.836 102.62 133.828C102.62 132.335 103.208 131.187 104.384 130.384C105.56 129.563 107.371 129.115 109.816 129.04L112.364 128.956V128.06C112.364 126.809 112.094 125.941 111.552 125.456C111.011 124.971 110.246 124.728 109.256 124.728C108.472 124.728 107.726 124.849 107.016 125.092C106.307 125.316 105.644 125.577 105.028 125.876L104.272 124.028C104.926 123.673 105.7 123.375 106.596 123.132C107.492 122.871 108.426 122.74 109.396 122.74ZM110.124 130.748C108.258 130.823 106.96 131.121 106.232 131.644C105.523 132.167 105.168 132.904 105.168 133.856C105.168 134.696 105.42 135.312 105.924 135.704C106.447 136.096 107.11 136.292 107.912 136.292C109.182 136.292 110.236 135.947 111.076 135.256C111.916 134.547 112.336 133.464 112.336 132.008V130.664L110.124 130.748ZM124.672 122.992V138H122.208V122.992H124.672ZM123.468 117.364C123.841 117.364 124.168 117.495 124.448 117.756C124.746 117.999 124.896 118.391 124.896 118.932C124.896 119.455 124.746 119.847 124.448 120.108C124.168 120.369 123.841 120.5 123.468 120.5C123.057 120.5 122.712 120.369 122.432 120.108C122.152 119.847 122.012 119.455 122.012 118.932C122.012 118.391 122.152 117.999 122.432 117.756C122.712 117.495 123.057 117.364 123.468 117.364ZM139.45 122.712C141.242 122.712 142.596 123.151 143.51 124.028C144.425 124.887 144.882 126.287 144.882 128.228V138H142.446V128.396C142.446 127.183 142.176 126.277 141.634 125.68C141.093 125.083 140.244 124.784 139.086 124.784C137.425 124.784 136.277 125.251 135.642 126.184C135.008 127.117 134.69 128.461 134.69 130.216V138H132.226V122.992H134.214L134.578 125.036H134.718C135.054 124.513 135.465 124.084 135.95 123.748C136.454 123.393 137.005 123.132 137.602 122.964C138.2 122.796 138.816 122.712 139.45 122.712ZM157.347 136.264C157.72 136.264 158.103 136.236 158.495 136.18C158.887 136.105 159.204 136.031 159.447 135.956V137.832C159.186 137.963 158.812 138.065 158.327 138.14C157.842 138.233 157.375 138.28 156.927 138.28C156.143 138.28 155.415 138.149 154.743 137.888C154.09 137.608 153.558 137.132 153.147 136.46C152.736 135.788 152.531 134.845 152.531 133.632V124.896H150.403V123.72L152.559 122.74L153.539 119.548H154.995V122.992H159.335V124.896H154.995V133.576C154.995 134.491 155.21 135.172 155.639 135.62C156.087 136.049 156.656 136.264 157.347 136.264ZM170.936 122.74C172.766 122.74 174.119 123.141 174.996 123.944C175.874 124.747 176.312 126.025 176.312 127.78V138H174.52L174.044 135.872H173.932C173.503 136.413 173.055 136.871 172.588 137.244C172.14 137.599 171.618 137.86 171.02 138.028C170.442 138.196 169.732 138.28 168.892 138.28C167.996 138.28 167.184 138.121 166.456 137.804C165.747 137.487 165.187 137.001 164.776 136.348C164.366 135.676 164.16 134.836 164.16 133.828C164.16 132.335 164.748 131.187 165.924 130.384C167.1 129.563 168.911 129.115 171.356 129.04L173.904 128.956V128.06C173.904 126.809 173.634 125.941 173.092 125.456C172.551 124.971 171.786 124.728 170.796 124.728C170.012 124.728 169.266 124.849 168.556 125.092C167.847 125.316 167.184 125.577 166.568 125.876L165.812 124.028C166.466 123.673 167.24 123.375 168.136 123.132C169.032 122.871 169.966 122.74 170.936 122.74ZM171.664 130.748C169.798 130.823 168.5 131.121 167.772 131.644C167.063 132.167 166.708 132.904 166.708 133.856C166.708 134.696 166.96 135.312 167.464 135.704C167.987 136.096 168.65 136.292 169.452 136.292C170.722 136.292 171.776 135.947 172.616 135.256C173.456 134.547 173.876 133.464 173.876 132.008V130.664L171.664 130.748ZM186.212 122.992V138H183.748V122.992H186.212ZM185.008 117.364C185.381 117.364 185.708 117.495 185.988 117.756C186.286 117.999 186.436 118.391 186.436 118.932C186.436 119.455 186.286 119.847 185.988 120.108C185.708 120.369 185.381 120.5 185.008 120.5C184.597 120.5 184.252 120.369 183.972 120.108C183.692 119.847 183.552 119.455 183.552 118.932C183.552 118.391 183.692 117.999 183.972 117.756C184.252 117.495 184.597 117.364 185.008 117.364ZM200.99 122.712C202.782 122.712 204.136 123.151 205.05 124.028C205.965 124.887 206.422 126.287 206.422 128.228V138H203.986V128.396C203.986 127.183 203.716 126.277 203.174 125.68C202.633 125.083 201.784 124.784 200.626 124.784C198.965 124.784 197.817 125.251 197.182 126.184C196.548 127.117 196.23 128.461 196.23 130.216V138H193.766V122.992H195.754L196.118 125.036H196.258C196.594 124.513 197.005 124.084 197.49 123.748C197.994 123.393 198.545 123.132 199.142 122.964C199.74 122.796 200.356 122.712 200.99 122.712ZM221.596 122.992H224.228L227.476 131.532C227.663 132.036 227.831 132.521 227.98 132.988C228.148 133.455 228.298 133.912 228.428 134.36C228.559 134.789 228.662 135.209 228.736 135.62H228.848C228.96 135.153 229.138 134.547 229.38 133.8C229.623 133.035 229.875 132.269 230.136 131.504L233.188 122.992H235.848L229.38 140.072C229.026 141.005 228.606 141.817 228.12 142.508C227.654 143.217 227.075 143.759 226.384 144.132C225.712 144.524 224.891 144.72 223.92 144.72C223.472 144.72 223.08 144.692 222.744 144.636C222.408 144.599 222.119 144.552 221.876 144.496V142.536C222.082 142.573 222.324 142.611 222.604 142.648C222.903 142.685 223.211 142.704 223.528 142.704C224.107 142.704 224.602 142.592 225.012 142.368C225.442 142.163 225.806 141.855 226.104 141.444C226.403 141.052 226.655 140.585 226.86 140.044L227.644 138.056L221.596 122.992ZM254.07 130.468C254.07 131.719 253.902 132.829 253.566 133.8C253.248 134.752 252.782 135.564 252.166 136.236C251.568 136.908 250.831 137.421 249.954 137.776C249.095 138.112 248.134 138.28 247.07 138.28C246.08 138.28 245.166 138.112 244.326 137.776C243.486 137.421 242.758 136.908 242.142 136.236C241.526 135.564 241.04 134.752 240.686 133.8C240.35 132.829 240.182 131.719 240.182 130.468C240.182 128.807 240.462 127.407 241.022 126.268C241.582 125.111 242.384 124.233 243.43 123.636C244.475 123.02 245.716 122.712 247.154 122.712C248.516 122.712 249.711 123.02 250.738 123.636C251.783 124.233 252.595 125.111 253.174 126.268C253.771 127.407 254.07 128.807 254.07 130.468ZM242.73 130.468C242.73 131.644 242.879 132.671 243.178 133.548C243.495 134.407 243.98 135.069 244.634 135.536C245.287 136.003 246.118 136.236 247.126 136.236C248.134 136.236 248.964 136.003 249.618 135.536C250.271 135.069 250.747 134.407 251.046 133.548C251.363 132.671 251.522 131.644 251.522 130.468C251.522 129.273 251.363 128.256 251.046 127.416C250.728 126.576 250.243 125.932 249.59 125.484C248.955 125.017 248.124 124.784 247.098 124.784C245.567 124.784 244.456 125.288 243.766 126.296C243.075 127.304 242.73 128.695 242.73 130.468ZM273.319 122.992V138H271.303L270.939 136.012H270.827C270.51 136.535 270.099 136.964 269.595 137.3C269.091 137.636 268.54 137.879 267.943 138.028C267.346 138.196 266.72 138.28 266.067 138.28C264.872 138.28 263.864 138.093 263.043 137.72C262.24 137.328 261.634 136.731 261.223 135.928C260.812 135.125 260.607 134.089 260.607 132.82V122.992H263.099V132.652C263.099 133.847 263.37 134.743 263.911 135.34C264.452 135.937 265.292 136.236 266.431 136.236C267.551 136.236 268.428 136.031 269.063 135.62C269.716 135.191 270.174 134.575 270.435 133.772C270.715 132.951 270.855 131.961 270.855 130.804V122.992H273.319ZM287.884 122.712C288.164 122.712 288.462 122.731 288.78 122.768C289.116 122.787 289.405 122.824 289.648 122.88L289.34 125.148C289.097 125.092 288.826 125.045 288.528 125.008C288.248 124.971 287.977 124.952 287.716 124.952C287.137 124.952 286.586 125.073 286.064 125.316C285.541 125.559 285.074 125.904 284.664 126.352C284.253 126.781 283.926 127.304 283.684 127.92C283.46 128.536 283.348 129.227 283.348 129.992V138H280.884V122.992H282.9L283.18 125.736H283.292C283.609 125.176 283.992 124.672 284.44 124.224C284.888 123.757 285.401 123.393 285.98 123.132C286.558 122.852 287.193 122.712 287.884 122.712ZM64.51 177.9C64.51 178.535 64.4913 179.132 64.454 179.692C64.4353 180.233 64.4073 180.663 64.37 180.98H64.51C64.9393 180.345 65.5273 179.813 66.274 179.384C67.0207 178.955 67.982 178.74 69.158 178.74C71.0247 178.74 72.518 179.393 73.638 180.7C74.7767 181.988 75.346 183.92 75.346 186.496C75.346 188.213 75.0847 189.651 74.562 190.808C74.058 191.965 73.3393 192.833 72.406 193.412C71.4727 193.991 70.39 194.28 69.158 194.28C67.982 194.28 67.0207 194.065 66.274 193.636C65.5273 193.207 64.9393 192.693 64.51 192.096H64.314L63.81 194H62.046V172.72H64.51V177.9ZM68.738 180.784C67.674 180.784 66.834 180.989 66.218 181.4C65.602 181.792 65.1633 182.408 64.902 183.248C64.6407 184.069 64.51 185.124 64.51 186.412V186.524C64.51 188.372 64.8087 189.791 65.406 190.78C66.022 191.751 67.1513 192.236 68.794 192.236C70.138 192.236 71.1367 191.741 71.79 190.752C72.462 189.763 72.798 188.335 72.798 186.468C72.798 184.583 72.462 183.164 71.79 182.212C71.1367 181.26 70.1193 180.784 68.738 180.784ZM95.1206 186.468C95.1206 187.719 94.9526 188.829 94.6166 189.8C94.2992 190.752 93.8326 191.564 93.2166 192.236C92.6192 192.908 91.8819 193.421 91.0046 193.776C90.1459 194.112 89.1846 194.28 88.1206 194.28C87.1312 194.28 86.2166 194.112 85.3766 193.776C84.5366 193.421 83.8086 192.908 83.1926 192.236C82.5766 191.564 82.0912 190.752 81.7366 189.8C81.4006 188.829 81.2326 187.719 81.2326 186.468C81.2326 184.807 81.5126 183.407 82.0726 182.268C82.6326 181.111 83.4352 180.233 84.4806 179.636C85.5259 179.02 86.7672 178.712 88.2046 178.712C89.5672 178.712 90.7619 179.02 91.7886 179.636C92.8339 180.233 93.6459 181.111 94.2246 182.268C94.8219 183.407 95.1206 184.807 95.1206 186.468ZM83.7806 186.468C83.7806 187.644 83.9299 188.671 84.2286 189.548C84.5459 190.407 85.0312 191.069 85.6846 191.536C86.3379 192.003 87.1686 192.236 88.1766 192.236C89.1846 192.236 90.0152 192.003 90.6686 191.536C91.3219 191.069 91.7979 190.407 92.0966 189.548C92.4139 188.671 92.5726 187.644 92.5726 186.468C92.5726 185.273 92.4139 184.256 92.0966 183.416C91.7792 182.576 91.2939 181.932 90.6406 181.484C90.0059 181.017 89.1752 180.784 88.1486 180.784C86.6179 180.784 85.5072 181.288 84.8166 182.296C84.1259 183.304 83.7806 184.695 83.7806 186.468ZM107.51 178.74C109.339 178.74 110.692 179.141 111.57 179.944C112.447 180.747 112.886 182.025 112.886 183.78V194H111.094L110.618 191.872H110.506C110.076 192.413 109.628 192.871 109.162 193.244C108.714 193.599 108.191 193.86 107.594 194.028C107.015 194.196 106.306 194.28 105.466 194.28C104.57 194.28 103.758 194.121 103.03 193.804C102.32 193.487 101.76 193.001 101.35 192.348C100.939 191.676 100.734 190.836 100.734 189.828C100.734 188.335 101.322 187.187 102.498 186.384C103.674 185.563 105.484 185.115 107.93 185.04L110.478 184.956V184.06C110.478 182.809 110.207 181.941 109.666 181.456C109.124 180.971 108.359 180.728 107.37 180.728C106.586 180.728 105.839 180.849 105.13 181.092C104.42 181.316 103.758 181.577 103.142 181.876L102.386 180.028C103.039 179.673 103.814 179.375 104.71 179.132C105.606 178.871 106.539 178.74 107.51 178.74ZM108.238 186.748C106.371 186.823 105.074 187.121 104.346 187.644C103.636 188.167 103.282 188.904 103.282 189.856C103.282 190.696 103.534 191.312 104.038 191.704C104.56 192.096 105.223 192.292 106.026 192.292C107.295 192.292 108.35 191.947 109.19 191.256C110.03 190.547 110.45 189.464 110.45 188.008V186.664L108.238 186.748ZM125.333 192.264C125.706 192.264 126.089 192.236 126.481 192.18C126.873 192.105 127.19 192.031 127.433 191.956V193.832C127.172 193.963 126.798 194.065 126.313 194.14C125.828 194.233 125.361 194.28 124.913 194.28C124.129 194.28 123.401 194.149 122.729 193.888C122.076 193.608 121.544 193.132 121.133 192.46C120.722 191.788 120.517 190.845 120.517 189.632V180.896H118.389V179.72L120.545 178.74L121.525 175.548H122.981V178.992H127.321V180.896H122.981V189.576C122.981 190.491 123.196 191.172 123.625 191.62C124.073 192.049 124.642 192.264 125.333 192.264ZM149.444 173.7C150.452 173.7 151.31 173.877 152.02 174.232C152.748 174.568 153.308 175.053 153.7 175.688C154.092 176.323 154.288 177.097 154.288 178.012C154.288 179.188 153.905 180.187 153.14 181.008C152.393 181.829 151.441 182.576 150.284 183.248L155.688 188.456C156.173 187.877 156.565 187.215 156.864 186.468C157.181 185.703 157.442 184.881 157.648 184.004H160.14C159.841 185.199 159.468 186.309 159.02 187.336C158.572 188.363 157.993 189.259 157.284 190.024L161.372 194H158.04L155.604 191.648C155.156 192.04 154.689 192.404 154.204 192.74C153.737 193.057 153.224 193.328 152.664 193.552C152.104 193.776 151.497 193.953 150.844 194.084C150.209 194.215 149.5 194.28 148.716 194.28C147.428 194.28 146.308 194.075 145.356 193.664C144.422 193.235 143.694 192.609 143.172 191.788C142.668 190.967 142.416 189.968 142.416 188.792C142.416 187.84 142.584 187.019 142.92 186.328C143.274 185.637 143.778 185.021 144.432 184.48C145.085 183.939 145.85 183.416 146.728 182.912C146.336 182.464 145.953 181.997 145.58 181.512C145.206 181.027 144.898 180.504 144.656 179.944C144.413 179.365 144.292 178.74 144.292 178.068C144.292 177.153 144.497 176.369 144.908 175.716C145.318 175.063 145.906 174.568 146.672 174.232C147.456 173.877 148.38 173.7 149.444 173.7ZM148.212 184.452C147.54 184.844 146.961 185.245 146.476 185.656C146.009 186.048 145.645 186.487 145.384 186.972C145.122 187.457 144.992 188.036 144.992 188.708C144.992 189.735 145.337 190.556 146.028 191.172C146.718 191.788 147.642 192.096 148.8 192.096C149.994 192.096 151.021 191.9 151.88 191.508C152.738 191.116 153.457 190.649 154.036 190.108L148.212 184.452ZM149.36 175.716C148.576 175.716 147.932 175.921 147.428 176.332C146.942 176.743 146.7 177.312 146.7 178.04C146.7 178.712 146.877 179.337 147.232 179.916C147.586 180.476 148.1 181.101 148.772 181.792C149.873 181.157 150.657 180.56 151.124 180C151.609 179.421 151.852 178.759 151.852 178.012C151.852 177.34 151.628 176.789 151.18 176.36C150.732 175.931 150.125 175.716 149.36 175.716ZM186.465 189.856C186.465 190.827 186.222 191.639 185.737 192.292C185.252 192.945 184.561 193.44 183.665 193.776C182.769 194.112 181.705 194.28 180.473 194.28C179.428 194.28 178.522 194.196 177.757 194.028C177.01 193.86 176.348 193.627 175.769 193.328V191.088C176.366 191.387 177.085 191.667 177.925 191.928C178.784 192.171 179.652 192.292 180.529 192.292C181.78 192.292 182.685 192.096 183.245 191.704C183.805 191.293 184.085 190.752 184.085 190.08C184.085 189.707 183.982 189.371 183.777 189.072C183.572 188.773 183.198 188.475 182.657 188.176C182.134 187.877 181.378 187.541 180.389 187.168C179.418 186.795 178.588 186.421 177.897 186.048C177.206 185.675 176.674 185.227 176.301 184.704C175.928 184.181 175.741 183.509 175.741 182.688C175.741 181.419 176.254 180.439 177.281 179.748C178.326 179.057 179.689 178.712 181.369 178.712C182.284 178.712 183.133 178.805 183.917 178.992C184.72 179.16 185.466 179.403 186.157 179.72L185.317 181.68C184.906 181.493 184.468 181.335 184.001 181.204C183.553 181.055 183.096 180.943 182.629 180.868C182.162 180.775 181.686 180.728 181.201 180.728C180.193 180.728 179.418 180.896 178.877 181.232C178.354 181.549 178.093 181.988 178.093 182.548C178.093 182.959 178.214 183.313 178.457 183.612C178.7 183.892 179.101 184.172 179.661 184.452C180.24 184.713 181.005 185.031 181.957 185.404C182.909 185.759 183.721 186.123 184.393 186.496C185.065 186.869 185.578 187.327 185.933 187.868C186.288 188.391 186.465 189.053 186.465 189.856ZM198.575 178.74C200.405 178.74 201.758 179.141 202.635 179.944C203.513 180.747 203.951 182.025 203.951 183.78V194H202.159L201.683 191.872H201.571C201.142 192.413 200.694 192.871 200.227 193.244C199.779 193.599 199.257 193.86 198.659 194.028C198.081 194.196 197.371 194.28 196.531 194.28C195.635 194.28 194.823 194.121 194.095 193.804C193.386 193.487 192.826 193.001 192.415 192.348C192.005 191.676 191.799 190.836 191.799 189.828C191.799 188.335 192.387 187.187 193.563 186.384C194.739 185.563 196.55 185.115 198.995 185.04L201.543 184.956V184.06C201.543 182.809 201.273 181.941 200.731 181.456C200.19 180.971 199.425 180.728 198.435 180.728C197.651 180.728 196.905 180.849 196.195 181.092C195.486 181.316 194.823 181.577 194.207 181.876L193.451 180.028C194.105 179.673 194.879 179.375 195.775 179.132C196.671 178.871 197.605 178.74 198.575 178.74ZM199.303 186.748C197.437 186.823 196.139 187.121 195.411 187.644C194.702 188.167 194.347 188.904 194.347 189.856C194.347 190.696 194.599 191.312 195.103 191.704C195.626 192.096 196.289 192.292 197.091 192.292C198.361 192.292 199.415 191.947 200.255 191.256C201.095 190.547 201.515 189.464 201.515 188.008V186.664L199.303 186.748ZM214.691 194L209.007 178.992H211.639L214.831 187.84C214.98 188.251 215.139 188.708 215.307 189.212C215.475 189.716 215.624 190.201 215.755 190.668C215.885 191.116 215.979 191.499 216.035 191.816H216.147C216.221 191.499 216.324 191.107 216.455 190.64C216.604 190.173 216.763 189.688 216.931 189.184C217.117 188.68 217.276 188.232 217.407 187.84L220.599 178.992H223.231L217.519 194H214.691ZM234.201 178.712C235.489 178.712 236.591 178.992 237.505 179.552C238.439 180.112 239.148 180.905 239.633 181.932C240.137 182.94 240.389 184.125 240.389 185.488V186.972H230.113C230.151 188.671 230.58 189.968 231.401 190.864C232.241 191.741 233.408 192.18 234.901 192.18C235.853 192.18 236.693 192.096 237.421 191.928C238.168 191.741 238.933 191.48 239.717 191.144V193.3C238.952 193.636 238.196 193.879 237.449 194.028C236.703 194.196 235.816 194.28 234.789 194.28C233.371 194.28 232.111 193.991 231.009 193.412C229.927 192.833 229.077 191.975 228.461 190.836C227.864 189.679 227.565 188.269 227.565 186.608C227.565 184.965 227.836 183.556 228.377 182.38C228.937 181.204 229.712 180.299 230.701 179.664C231.709 179.029 232.876 178.712 234.201 178.712ZM234.173 180.728C232.997 180.728 232.064 181.111 231.373 181.876C230.701 182.623 230.3 183.668 230.169 185.012H237.813C237.813 184.153 237.683 183.407 237.421 182.772C237.16 182.137 236.759 181.643 236.217 181.288C235.695 180.915 235.013 180.728 234.173 180.728ZM262.096 192.264C262.469 192.264 262.852 192.236 263.244 192.18C263.636 192.105 263.953 192.031 264.196 191.956V193.832C263.934 193.963 263.561 194.065 263.076 194.14C262.59 194.233 262.124 194.28 261.676 194.28C260.892 194.28 260.164 194.149 259.492 193.888C258.838 193.608 258.306 193.132 257.896 192.46C257.485 191.788 257.28 190.845 257.28 189.632V180.896H255.152V179.72L257.308 178.74L258.288 175.548H259.744V178.992H264.084V180.896H259.744V189.576C259.744 190.491 259.958 191.172 260.388 191.62C260.836 192.049 261.405 192.264 262.096 192.264ZM272.465 178.964C272.465 179.319 272.446 179.683 272.409 180.056C272.39 180.429 272.362 180.765 272.325 181.064H272.493C272.81 180.541 273.211 180.112 273.697 179.776C274.182 179.44 274.723 179.188 275.321 179.02C275.918 178.833 276.534 178.74 277.169 178.74C278.382 178.74 279.39 178.936 280.193 179.328C281.014 179.701 281.63 180.289 282.041 181.092C282.451 181.895 282.657 182.94 282.657 184.228V194H280.221V184.396C280.221 183.183 279.95 182.277 279.409 181.68C278.867 181.083 278.018 180.784 276.861 180.784C275.741 180.784 274.863 180.999 274.229 181.428C273.594 181.839 273.137 182.455 272.857 183.276C272.595 184.079 272.465 185.068 272.465 186.244V194H270.001V172.72H272.465V178.964ZM295.905 178.712C297.193 178.712 298.295 178.992 299.209 179.552C300.143 180.112 300.852 180.905 301.337 181.932C301.841 182.94 302.093 184.125 302.093 185.488V186.972H291.817C291.855 188.671 292.284 189.968 293.105 190.864C293.945 191.741 295.112 192.18 296.605 192.18C297.557 192.18 298.397 192.096 299.125 191.928C299.872 191.741 300.637 191.48 301.421 191.144V193.3C300.656 193.636 299.9 193.879 299.153 194.028C298.407 194.196 297.52 194.28 296.493 194.28C295.075 194.28 293.815 193.991 292.713 193.412C291.631 192.833 290.781 191.975 290.165 190.836C289.568 189.679 289.269 188.269 289.269 186.608C289.269 184.965 289.54 183.556 290.081 182.38C290.641 181.204 291.416 180.299 292.405 179.664C293.413 179.029 294.58 178.712 295.905 178.712ZM295.877 180.728C294.701 180.728 293.768 181.111 293.077 181.876C292.405 182.623 292.004 183.668 291.873 185.012H299.517C299.517 184.153 299.387 183.407 299.125 182.772C298.864 182.137 298.463 181.643 297.921 181.288C297.399 180.915 296.717 180.728 295.877 180.728ZM80.8143 242.468C80.8143 243.719 80.6463 244.829 80.3103 245.8C79.993 246.752 79.5263 247.564 78.9103 248.236C78.313 248.908 77.5757 249.421 76.6983 249.776C75.8397 250.112 74.8783 250.28 73.8143 250.28C72.825 250.28 71.9103 250.112 71.0703 249.776C70.2303 249.421 69.5023 248.908 68.8863 248.236C68.2703 247.564 67.785 246.752 67.4303 245.8C67.0943 244.829 66.9263 243.719 66.9263 242.468C66.9263 240.807 67.2063 239.407 67.7663 238.268C68.3263 237.111 69.129 236.233 70.1743 235.636C71.2197 235.02 72.461 234.712 73.8983 234.712C75.261 234.712 76.4557 235.02 77.4823 235.636C78.5277 236.233 79.3397 237.111 79.9183 238.268C80.5157 239.407 80.8143 240.807 80.8143 242.468ZM69.4743 242.468C69.4743 243.644 69.6237 244.671 69.9223 245.548C70.2397 246.407 70.725 247.069 71.3783 247.536C72.0317 248.003 72.8623 248.236 73.8703 248.236C74.8783 248.236 75.709 248.003 76.3623 247.536C77.0157 247.069 77.4917 246.407 77.7903 245.548C78.1077 244.671 78.2663 243.644 78.2663 242.468C78.2663 241.273 78.1077 240.256 77.7903 239.416C77.473 238.576 76.9877 237.932 76.3343 237.484C75.6997 237.017 74.869 236.784 73.8423 236.784C72.3117 236.784 71.201 237.288 70.5103 238.296C69.8197 239.304 69.4743 240.695 69.4743 242.468ZM93.5395 250.28C92.2141 250.28 91.0288 250.009 89.9835 249.468C88.9568 248.927 88.1448 248.087 87.5475 246.948C86.9688 245.809 86.6795 244.353 86.6795 242.58C86.6795 240.732 86.9875 239.229 87.6035 238.072C88.2195 236.915 89.0501 236.065 90.0955 235.524C91.1595 234.983 92.3635 234.712 93.7075 234.712C94.4728 234.712 95.2101 234.796 95.9195 234.964C96.6288 235.113 97.2075 235.3 97.6555 235.524L96.8995 237.568C96.4515 237.4 95.9288 237.241 95.3315 237.092C94.7341 236.943 94.1741 236.868 93.6515 236.868C92.6435 236.868 91.8128 237.083 91.1595 237.512C90.5061 237.941 90.0208 238.576 89.7035 239.416C89.3861 240.256 89.2275 241.301 89.2275 242.552C89.2275 243.747 89.3861 244.764 89.7035 245.604C90.0208 246.444 90.4968 247.079 91.1315 247.508C91.7661 247.937 92.5595 248.152 93.5115 248.152C94.3328 248.152 95.0515 248.068 95.6675 247.9C96.3021 247.732 96.8808 247.527 97.4035 247.284V249.468C96.8995 249.729 96.3395 249.925 95.7235 250.056C95.1261 250.205 94.3981 250.28 93.5395 250.28ZM109.569 234.712C110.857 234.712 111.958 234.992 112.873 235.552C113.806 236.112 114.515 236.905 115.001 237.932C115.505 238.94 115.757 240.125 115.757 241.488V242.972H105.481C105.518 244.671 105.947 245.968 106.769 246.864C107.609 247.741 108.775 248.18 110.269 248.18C111.221 248.18 112.061 248.096 112.789 247.928C113.535 247.741 114.301 247.48 115.085 247.144V249.3C114.319 249.636 113.563 249.879 112.817 250.028C112.07 250.196 111.183 250.28 110.157 250.28C108.738 250.28 107.478 249.991 106.377 249.412C105.294 248.833 104.445 247.975 103.829 246.836C103.231 245.679 102.933 244.269 102.933 242.608C102.933 240.965 103.203 239.556 103.745 238.38C104.305 237.204 105.079 236.299 106.069 235.664C107.077 235.029 108.243 234.712 109.569 234.712ZM109.541 236.728C108.365 236.728 107.431 237.111 106.741 237.876C106.069 238.623 105.667 239.668 105.537 241.012H113.181C113.181 240.153 113.05 239.407 112.789 238.772C112.527 238.137 112.126 237.643 111.585 237.288C111.062 236.915 110.381 236.728 109.541 236.728ZM128.061 234.74C129.891 234.74 131.244 235.141 132.121 235.944C132.999 236.747 133.437 238.025 133.437 239.78V250H131.645L131.169 247.872H131.057C130.628 248.413 130.18 248.871 129.713 249.244C129.265 249.599 128.743 249.86 128.145 250.028C127.567 250.196 126.857 250.28 126.017 250.28C125.121 250.28 124.309 250.121 123.581 249.804C122.872 249.487 122.312 249.001 121.901 248.348C121.491 247.676 121.285 246.836 121.285 245.828C121.285 244.335 121.873 243.187 123.049 242.384C124.225 241.563 126.036 241.115 128.481 241.04L131.029 240.956V240.06C131.029 238.809 130.759 237.941 130.217 237.456C129.676 236.971 128.911 236.728 127.921 236.728C127.137 236.728 126.391 236.849 125.681 237.092C124.972 237.316 124.309 237.577 123.693 237.876L122.937 236.028C123.591 235.673 124.365 235.375 125.261 235.132C126.157 234.871 127.091 234.74 128.061 234.74ZM128.789 242.748C126.923 242.823 125.625 243.121 124.897 243.644C124.188 244.167 123.833 244.904 123.833 245.856C123.833 246.696 124.085 247.312 124.589 247.704C125.112 248.096 125.775 248.292 126.577 248.292C127.847 248.292 128.901 247.947 129.741 247.256C130.581 246.547 131.001 245.464 131.001 244.008V242.664L128.789 242.748ZM148.097 234.712C149.889 234.712 151.242 235.151 152.157 236.028C153.071 236.887 153.529 238.287 153.529 240.228V250H151.093V240.396C151.093 239.183 150.822 238.277 150.281 237.68C149.739 237.083 148.89 236.784 147.733 236.784C146.071 236.784 144.923 237.251 144.289 238.184C143.654 239.117 143.337 240.461 143.337 242.216V250H140.873V234.992H142.861L143.225 237.036H143.365C143.701 236.513 144.111 236.084 144.597 235.748C145.101 235.393 145.651 235.132 146.249 234.964C146.846 234.796 147.462 234.712 148.097 234.712ZM162.808 230.008L162.248 237.232H160.708L160.148 230.008H162.808ZM178.721 245.856C178.721 246.827 178.478 247.639 177.993 248.292C177.508 248.945 176.817 249.44 175.921 249.776C175.025 250.112 173.961 250.28 172.729 250.28C171.684 250.28 170.778 250.196 170.013 250.028C169.266 249.86 168.604 249.627 168.025 249.328V247.088C168.622 247.387 169.341 247.667 170.181 247.928C171.04 248.171 171.908 248.292 172.785 248.292C174.036 248.292 174.941 248.096 175.501 247.704C176.061 247.293 176.341 246.752 176.341 246.08C176.341 245.707 176.238 245.371 176.033 245.072C175.828 244.773 175.454 244.475 174.913 244.176C174.39 243.877 173.634 243.541 172.645 243.168C171.674 242.795 170.844 242.421 170.153 242.048C169.462 241.675 168.93 241.227 168.557 240.704C168.184 240.181 167.997 239.509 167.997 238.688C167.997 237.419 168.51 236.439 169.537 235.748C170.582 235.057 171.945 234.712 173.625 234.712C174.54 234.712 175.389 234.805 176.173 234.992C176.976 235.16 177.722 235.403 178.413 235.72L177.573 237.68C177.162 237.493 176.724 237.335 176.257 237.204C175.809 237.055 175.352 236.943 174.885 236.868C174.418 236.775 173.942 236.728 173.457 236.728C172.449 236.728 171.674 236.896 171.133 237.232C170.61 237.549 170.349 237.988 170.349 238.548C170.349 238.959 170.47 239.313 170.713 239.612C170.956 239.892 171.357 240.172 171.917 240.452C172.496 240.713 173.261 241.031 174.213 241.404C175.165 241.759 175.977 242.123 176.649 242.496C177.321 242.869 177.834 243.327 178.189 243.868C178.544 244.391 178.721 245.053 178.721 245.856ZM197.685 234.964C197.685 235.319 197.666 235.683 197.629 236.056C197.61 236.429 197.582 236.765 197.545 237.064H197.713C198.03 236.541 198.432 236.112 198.917 235.776C199.402 235.44 199.944 235.188 200.541 235.02C201.138 234.833 201.754 234.74 202.389 234.74C203.602 234.74 204.61 234.936 205.413 235.328C206.234 235.701 206.85 236.289 207.261 237.092C207.672 237.895 207.877 238.94 207.877 240.228V250H205.441V240.396C205.441 239.183 205.17 238.277 204.629 237.68C204.088 237.083 203.238 236.784 202.081 236.784C200.961 236.784 200.084 236.999 199.449 237.428C198.814 237.839 198.357 238.455 198.077 239.276C197.816 240.079 197.685 241.068 197.685 242.244V250H195.221V228.72H197.685V234.964ZM221.126 234.712C222.414 234.712 223.515 234.992 224.43 235.552C225.363 236.112 226.072 236.905 226.558 237.932C227.062 238.94 227.314 240.125 227.314 241.488V242.972H217.038C217.075 244.671 217.504 245.968 218.326 246.864C219.166 247.741 220.332 248.18 221.826 248.18C222.778 248.18 223.618 248.096 224.346 247.928C225.092 247.741 225.858 247.48 226.642 247.144V249.3C225.876 249.636 225.12 249.879 224.374 250.028C223.627 250.196 222.74 250.28 221.714 250.28C220.295 250.28 219.035 249.991 217.934 249.412C216.851 248.833 216.002 247.975 215.386 246.836C214.788 245.679 214.49 244.269 214.49 242.608C214.49 240.965 214.76 239.556 215.302 238.38C215.862 237.204 216.636 236.299 217.626 235.664C218.634 235.029 219.8 234.712 221.126 234.712ZM221.098 236.728C219.922 236.728 218.988 237.111 218.298 237.876C217.626 238.623 217.224 239.668 217.094 241.012H224.738C224.738 240.153 224.607 239.407 224.346 238.772C224.084 238.137 223.683 237.643 223.142 237.288C222.619 236.915 221.938 236.728 221.098 236.728ZM239.618 234.74C241.448 234.74 242.801 235.141 243.678 235.944C244.556 236.747 244.994 238.025 244.994 239.78V250H243.202L242.726 247.872H242.614C242.185 248.413 241.737 248.871 241.27 249.244C240.822 249.599 240.3 249.86 239.702 250.028C239.124 250.196 238.414 250.28 237.574 250.28C236.678 250.28 235.866 250.121 235.138 249.804C234.429 249.487 233.869 249.001 233.458 248.348C233.048 247.676 232.842 246.836 232.842 245.828C232.842 244.335 233.43 243.187 234.606 242.384C235.782 241.563 237.593 241.115 240.038 241.04L242.586 240.956V240.06C242.586 238.809 242.316 237.941 241.774 237.456C241.233 236.971 240.468 236.728 239.478 236.728C238.694 236.728 237.948 236.849 237.238 237.092C236.529 237.316 235.866 237.577 235.25 237.876L234.494 236.028C235.148 235.673 235.922 235.375 236.818 235.132C237.714 234.871 238.648 234.74 239.618 234.74ZM240.346 242.748C238.48 242.823 237.182 243.121 236.454 243.644C235.745 244.167 235.39 244.904 235.39 245.856C235.39 246.696 235.642 247.312 236.146 247.704C236.669 248.096 237.332 248.292 238.134 248.292C239.404 248.292 240.458 247.947 241.298 247.256C242.138 246.547 242.558 245.464 242.558 244.008V242.664L240.346 242.748ZM254.894 250H252.43V228.72H254.894V250ZM267.46 248.264C267.834 248.264 268.216 248.236 268.608 248.18C269 248.105 269.318 248.031 269.56 247.956V249.832C269.299 249.963 268.926 250.065 268.44 250.14C267.955 250.233 267.488 250.28 267.04 250.28C266.256 250.28 265.528 250.149 264.856 249.888C264.203 249.608 263.671 249.132 263.26 248.46C262.85 247.788 262.644 246.845 262.644 245.632V236.896H260.516V235.72L262.672 234.74L263.652 231.548H265.108V234.992H269.448V236.896H265.108V245.576C265.108 246.491 265.323 247.172 265.752 247.62C266.2 248.049 266.77 248.264 267.46 248.264ZM277.83 234.964C277.83 235.319 277.811 235.683 277.774 236.056C277.755 236.429 277.727 236.765 277.69 237.064H277.858C278.175 236.541 278.576 236.112 279.062 235.776C279.547 235.44 280.088 235.188 280.686 235.02C281.283 234.833 281.899 234.74 282.534 234.74C283.747 234.74 284.755 234.936 285.558 235.328C286.379 235.701 286.995 236.289 287.406 237.092C287.816 237.895 288.022 238.94 288.022 240.228V250H285.586V240.396C285.586 239.183 285.315 238.277 284.774 237.68C284.232 237.083 283.383 236.784 282.226 236.784C281.106 236.784 280.228 236.999 279.594 237.428C278.959 237.839 278.502 238.455 278.222 239.276C277.96 240.079 277.83 241.068 277.83 242.244V250H275.366V228.72H277.83V234.964ZM297.658 244.372H296.062L295.362 230.008H298.358L297.658 244.372ZM295.11 248.488C295.11 247.797 295.278 247.312 295.614 247.032C295.95 246.752 296.361 246.612 296.846 246.612C297.313 246.612 297.714 246.752 298.05 247.032C298.405 247.312 298.582 247.797 298.582 248.488C298.582 249.16 298.405 249.645 298.05 249.944C297.714 250.243 297.313 250.392 296.846 250.392C296.361 250.392 295.95 250.243 295.614 249.944C295.278 249.645 295.11 249.16 295.11 248.488Z" fill="#FFFF00"/>
<defs>
<filter id="filter0_b_499_51" x="-20" y="-20" width="406" height="406" filterUnits="userSpaceOnUse" color-interpolation-filters="sRGB">
<feFlood flood-opacity="0" result="BackgroundImageFix"/>
<feGaussianBlur in="BackgroundImage" stdDeviation="10"/>
<feComposite in2="SourceAlpha" operator="in" result="effect1_backgroundBlur_499_51"/>
<feBlend mode="normal" in="SourceGraphic" in2="effect1_backgroundBlur_499_51" result="shape"/>
</filter>
</defs>
</svg>
